<?xml version="1.0" standalone="no"?>
<svg xmlns="http://www.w3.org/2000/svg" xmlns:xlink="http://www.w3.org/1999/xlink" version="1.1" class="stacked-chart" width="600" height="470" style="background-color: transparent; font-size: 14px; font-family: IbarraRealNova-SemiBold; letter-spacing: 0px; user-select: none;" totalHeight="0"><defs><clipPath id="ftmgvi1fsddavov"><rect x="-20" y="0" width="640" height="470"/></clipPath><clipPath id="diftln1fsddavov"><rect class="xdiftln1fsddavov"/></clipPath><filter x="-10%" y="-10%" width="180%" height="180%" id="Drop_Shadow_stacklinear" filterUnits="objectBoundingBox"><feGaussianBlur in="SourceAlpha" stdDeviation="0" result="blurredAlpha"/><feOffset in="blurredAlpha" dx="0.5" dy="0.7" result="offsetBlurredAlpha"/><feFlood result="flooded" style="flood-color: rgb(255, 255, 255); flood-opacity: 0.5;"/><feComposite in="flooded" in2="offsetBlurredAlpha" operator="in" result="coloredShadow"/><feComposite in="SourceGraphic" in2="coloredShadow" operator="over"/></filter></defs><g class="svg-group" opacity="1" transform="translate(24,20)"><g class="main-group" transform="translate(0,30.75)"><g class="core-group" transform="translate(52.41250038146973,0)" clip-path=""><g class="plane-grid"><g class="" style="fill: none; stroke: rgb(233, 233, 233); stroke-width: 1; stroke-dasharray: 4, 4; pointer-events: none;"><line class="grid-x-line" x1="0" y1="281.706452616483" x2="500.0874996185303" y2="281.706452616483"/><line class="grid-x-line" x1="0" y1="232.56290561443564" x2="500.0874996185303" y2="232.56290561443564"/><line class="grid-x-line" x1="0" y1="183.41935861238835" x2="500.0874996185303" y2="183.41935861238835"/><line class="grid-x-line" x1="0" y1="134.27581161034104" x2="500.0874996185303" y2="134.27581161034104"/><line class="grid-x-line" x1="0" y1="85.13226460829375" x2="500.0874996185303" y2="85.13226460829375"/><line class="grid-x-line" x1="0" y1="35.98871760624644" x2="500.0874996185303" y2="35.98871760624644"/></g></g><g class="area-plot" clip-path=""><g><path d="M13.5158783680684,186.13432945726228C13.5158783680684,186.13432945726228,58.56880626162969,199.63913998524825,81.09527020841033,197.23733103143485C103.62173415519096,194.83552207762145,126.14819810197162,169.94501172133369,148.67466204875225,171.72347573438194C171.2011259955329,173.50193974743019,193.72758994231353,184.12837177455037,216.25405388909417,207.90811510972435C238.7805178358748,231.68785844489832,261.30698178265544,294.00724088070876,283.8334457294361,314.4019357454259C306.3599096762168,334.796630610143,328.88637362299744,330.70121216777153,351.41283756977805,330.2762842980272C373.93930151655866,329.8513564282828,396.46576546333927,315.0554220616856,418.99222941011993,311.85236852695965C441.5186933569006,308.6493149922337,486.5716212504619,311.05796308967155,486.5716212504619,311.05796308967155L486.5716212504619,330.34999961853026C486.5716212504619,330.34999961853026,441.5186933569006,330.34999961853026,418.99222941011993,330.34999961853026C396.46576546333927,330.34999961853026,373.93930151655866,330.34999961853026,351.41283756977805,330.34999961853026C328.88637362299744,330.34999961853026,306.3599096762168,330.34999961853026,283.8334457294361,330.34999961853026C261.30698178265544,330.34999961853026,238.7805178358748,330.34999961853026,216.25405388909417,330.34999961853026C193.72758994231353,330.34999961853026,171.2011259955329,330.34999961853026,148.67466204875225,330.34999961853026C126.14819810197162,330.34999961853026,103.62173415519096,330.34999961853026,81.09527020841033,330.34999961853026C58.56880626162969,330.34999961853026,13.5158783680684,330.34999961853026,13.5158783680684,330.34999961853026Z" style="fill: rgb(21, 42, 209); fill-opacity: 0.7;"/><path d="M13.5158783680684,61.50801428421545C13.5158783680684,61.50801428421545,58.56880626162969,79.04804240949532,81.09527020841033,73.8020097199826C103.62173415519096,68.55597703046989,126.14819810197162,27.206228006344755,148.67466204875225,30.03181814713912C171.2011259955329,32.85740828793349,193.72758994231353,43.841564384272715,216.25405388909417,90.7555505647488C238.7805178358748,137.6695367452249,261.30698178265544,274.87184940791906,283.8334457294361,311.51573522999564C306.3599096762168,348.1596210520722,328.88637362299744,310.91782207480406,351.41283756977805,310.6188654972083C373.93930151655866,310.3199089196125,396.46576546333927,310.0209523420167,418.99222941011993,309.7219957644209C441.5186933569006,309.4230391868251,486.5716212504619,308.82512603163354,486.5716212504619,308.82512603163354L486.5716212504619,311.05796308967155C486.5716212504619,311.05796308967155,441.5186933569006,308.6493149922337,418.99222941011993,311.85236852695965C396.46576546333927,315.0554220616856,373.93930151655866,329.8513564282828,351.41283756977805,330.2762842980272C328.88637362299744,330.70121216777153,306.3599096762168,334.796630610143,283.8334457294361,314.4019357454259C261.30698178265544,294.00724088070876,238.7805178358748,231.68785844489832,216.25405388909417,207.90811510972435C193.72758994231353,184.12837177455037,171.2011259955329,173.50193974743019,148.67466204875225,171.72347573438194C126.14819810197162,169.94501172133369,103.62173415519096,194.83552207762145,81.09527020841033,197.23733103143485C58.56880626162969,199.63913998524825,13.5158783680684,186.13432945726228,13.5158783680684,186.13432945726228Z" style="fill: rgb(109, 154, 231); fill-opacity: 0.7;"/></g></g><g class="stack-area-line-plot" clip-path=""><g><path d="M13.5158783680684,186.13432945726228C13.5158783680684,186.13432945726228,58.56880626162969,199.63913998524825,81.09527020841033,197.23733103143485C103.62173415519096,194.83552207762145,126.14819810197162,169.94501172133369,148.67466204875225,171.72347573438194C171.2011259955329,173.50193974743019,193.72758994231353,184.12837177455037,216.25405388909417,207.90811510972435C238.7805178358748,231.68785844489832,261.30698178265544,294.00724088070876,283.8334457294361,314.4019357454259C306.3599096762168,334.796630610143,328.88637362299744,330.70121216777153,351.41283756977805,330.2762842980272C373.93930151655866,329.8513564282828,396.46576546333927,315.0554220616856,418.99222941011993,311.85236852695965C441.5186933569006,308.6493149922337,486.5716212504619,311.05796308967155,486.5716212504619,311.05796308967155" style="fill: none; stroke: rgb(21, 42, 209); stroke-width: 2;"/><path d="M13.5158783680684,61.50801428421545C13.5158783680684,61.50801428421545,58.56880626162969,79.04804240949532,81.09527020841033,73.8020097199826C103.62173415519096,68.55597703046989,126.14819810197162,27.206228006344755,148.67466204875225,30.03181814713912C171.2011259955329,32.85740828793349,193.72758994231353,43.841564384272715,216.25405388909417,90.7555505647488C238.7805178358748,137.6695367452249,261.30698178265544,274.87184940791906,283.8334457294361,311.51573522999564C306.3599096762168,348.1596210520722,328.88637362299744,310.91782207480406,351.41283756977805,310.6188654972083C373.93930151655866,310.3199089196125,396.46576546333927,310.0209523420167,418.99222941011993,309.7219957644209C441.5186933569006,309.4230391868251,486.5716212504619,308.82512603163354,486.5716212504619,308.82512603163354" style="fill: none; stroke: rgb(109, 154, 231); stroke-width: 2;"/><g><g><circle class="clip-scatter-plot" cx="13.5158783680684" cy="186.13432945726228" r="0" style="fill: rgb(255, 255, 255); stroke: rgb(21, 42, 209); stroke-width: 2; visibility: visible;"/><circle class="clip-scatter-plot" cx="81.09527020841033" cy="197.23733103143485" r="0" style="fill: rgb(255, 255, 255); stroke: rgb(21, 42, 209); stroke-width: 2; visibility: visible;"/><circle class="clip-scatter-plot" cx="148.67466204875225" cy="171.72347573438194" r="0" style="fill: rgb(255, 255, 255); stroke: rgb(21, 42, 209); stroke-width: 2; visibility: visible;"/><circle class="clip-scatter-plot" cx="216.25405388909417" cy="207.90811510972435" r="0" style="fill: rgb(255, 255, 255); stroke: rgb(21, 42, 209); stroke-width: 2; visibility: visible;"/><circle class="clip-scatter-plot" cx="283.8334457294361" cy="314.4019357454259" r="0" style="fill: rgb(255, 255, 255); stroke: rgb(21, 42, 209); stroke-width: 2; visibility: visible;"/><circle class="clip-scatter-plot" cx="351.41283756977805" cy="330.2762842980272" r="0" style="fill: rgb(255, 255, 255); stroke: rgb(21, 42, 209); stroke-width: 2; visibility: visible;"/><circle class="clip-scatter-plot" cx="418.99222941011993" cy="311.85236852695965" r="0" style="fill: rgb(255, 255, 255); stroke: rgb(21, 42, 209); stroke-width: 2; visibility: visible;"/><circle class="clip-scatter-plot" cx="486.5716212504619" cy="311.05796308967155" r="0" style="fill: rgb(255, 255, 255); stroke: rgb(21, 42, 209); stroke-width: 2; visibility: visible;"/></g><g><circle class="clip-scatter-plot" cx="13.5158783680684" cy="61.50801428421545" r="0" style="fill: rgb(255, 255, 255); stroke: rgb(109, 154, 231); stroke-width: 2; visibility: visible;"/><circle class="clip-scatter-plot" cx="81.09527020841033" cy="73.8020097199826" r="0" style="fill: rgb(255, 255, 255); stroke: rgb(109, 154, 231); stroke-width: 2; visibility: visible;"/><circle class="clip-scatter-plot" cx="148.67466204875225" cy="30.03181814713912" r="0" style="fill: rgb(255, 255, 255); stroke: rgb(109, 154, 231); stroke-width: 2; visibility: visible;"/><circle class="clip-scatter-plot" cx="216.25405388909417" cy="90.7555505647488" r="0" style="fill: rgb(255, 255, 255); stroke: rgb(109, 154, 231); stroke-width: 2; visibility: visible;"/><circle class="clip-scatter-plot" cx="283.8334457294361" cy="311.51573522999564" r="0" style="fill: rgb(255, 255, 255); stroke: rgb(109, 154, 231); stroke-width: 2; visibility: visible;"/><circle class="clip-scatter-plot" cx="351.41283756977805" cy="310.6188654972083" r="0" style="fill: rgb(255, 255, 255); stroke: rgb(109, 154, 231); stroke-width: 2; visibility: visible;"/><circle class="clip-scatter-plot" cx="418.99222941011993" cy="309.7219957644209" r="0" style="fill: rgb(255, 255, 255); stroke: rgb(109, 154, 231); stroke-width: 2; visibility: visible;"/><circle class="clip-scatter-plot" cx="486.5716212504619" cy="308.82512603163354" r="0" style="fill: rgb(255, 255, 255); stroke: rgb(109, 154, 231); stroke-width: 2; visibility: visible;"/></g></g></g></g><g class="bands-overlay" style="opacity: 0;"><rect class="band-0" x="-33.78969592017096" y="0" width="67.57939184034193" height="330.34999961853026" style="fill: rgb(0, 0, 0);"/><rect class="band-1" x="33.78969592017096" y="0" width="67.57939184034193" height="330.34999961853026" style="fill: rgb(0, 0, 0);"/><rect class="band-2" x="101.36908776051288" y="0" width="67.57939184034193" height="330.34999961853026" style="fill: rgb(0, 0, 0);"/><rect class="band-3" x="168.9484796008548" y="0" width="67.57939184034193" height="330.34999961853026" style="fill: rgb(0, 0, 0);"/><rect class="band-4" x="236.52787144119674" y="0" width="67.57939184034193" height="330.34999961853026" style="fill: rgb(0, 0, 0);"/><rect class="band-5" x="304.1072632815387" y="0" width="67.57939184034193" height="330.34999961853026" style="fill: rgb(0, 0, 0);"/><rect class="band-6" x="371.68665512188056" y="0" width="67.57939184034193" height="330.34999961853026" style="fill: rgb(0, 0, 0);"/><rect class="band-7" x="439.2660469622225" y="0" width="67.57939184034193" height="330.34999961853026" style="fill: rgb(0, 0, 0);"/></g><line class="guide-line" x1="0" y1="0" x2="0" y2="330.34999961853026" style="stroke: rgb(198, 198, 198); stroke-dasharray: none; pointer-events: none; display: none;" transform="translate(418.9922180175781, 0)"/><g class="scatter-plot" style="pointer-events: none; display: none;"><g><g><circle class="stacked-scatter-circle" cx="418.99222941011993" cy="311.85236852695965" r="0" style="fill: rgb(21, 42, 209); stroke: rgb(255, 255, 255); stroke-width: 2; opacity: 1;"/></g><g><circle class="stacked-scatter-circle" cx="418.99222941011993" cy="309.7219957644209" r="0" style="fill: rgb(109, 154, 231); stroke: rgb(255, 255, 255); stroke-width: 2; opacity: 1;"/></g></g></g><g class="area-stack-texts"><g><g class="area-stack-text-group"><text x="13.5158783680684" y="186.13432945726228" text-anchor="middle" dy="-5.6000000000000005" style="fill: rgb(84, 84, 84); font-size: 14px; font-family: &quot;阿里巴巴普惠体 常规&quot;; display: none; opacity: 1; visibility: hidden;">58.6916</text><text x="81.09527020841033" y="197.23733103143485" text-anchor="middle" dy="-5.6000000000000005" style="fill: rgb(84, 84, 84); font-size: 14px; font-family: &quot;阿里巴巴普惠体 常规&quot;; display: none; opacity: 1; visibility: hidden;">54.173</text><text x="148.67466204875225" y="171.72347573438194" text-anchor="middle" dy="-5.6000000000000005" style="fill: rgb(84, 84, 84); font-size: 14px; font-family: &quot;阿里巴巴普惠体 常规&quot;; display: none; opacity: 1; visibility: hidden;">64.5564</text><text x="216.25405388909417" y="207.90811510972435" text-anchor="middle" dy="-5.6000000000000005" style="fill: rgb(84, 84, 84); font-size: 14px; font-family: &quot;阿里巴巴普惠体 常规&quot;; display: none; opacity: 1; visibility: hidden;">49.8303</text><text x="283.8334457294361" y="314.4019357454259" text-anchor="middle" dy="-5.6000000000000005" style="fill: rgb(84, 84, 84); font-size: 14px; font-family: &quot;阿里巴巴普惠体 常规&quot;; display: none; opacity: 1; visibility: hidden;">6.4904</text><text x="351.41283756977805" y="330.2762842980272" text-anchor="middle" dy="-5.6000000000000005" style="fill: rgb(84, 84, 84); font-size: 14px; font-family: &quot;阿里巴巴普惠体 常规&quot;; display: none; opacity: 1; visibility: hidden;">0.03</text><text x="418.99222941011993" y="311.85236852695965" text-anchor="middle" dy="-5.6000000000000005" style="fill: rgb(84, 84, 84); font-size: 14px; font-family: &quot;阿里巴巴普惠体 常规&quot;; display: none; opacity: 1; visibility: hidden;">7.528</text><text x="486.5716212504619" y="311.05796308967155" text-anchor="middle" dy="-5.6000000000000005" style="fill: rgb(84, 84, 84); font-size: 14px; font-family: &quot;阿里巴巴普惠体 常规&quot;; display: none; opacity: 1; visibility: hidden;">7.8513</text></g><g class="area-stack-text-group"><text x="13.5158783680684" y="61.50801428421545" text-anchor="middle" dy="-5.6000000000000005" style="fill: rgb(84, 84, 84); font-size: 14px; font-family: &quot;阿里巴巴普惠体 常规&quot;; display: none; opacity: 1; visibility: hidden;">50.7193</text><text x="81.09527020841033" y="73.8020097199826" text-anchor="middle" dy="-5.6000000000000005" style="fill: rgb(84, 84, 84); font-size: 14px; font-family: &quot;阿里巴巴普惠体 常规&quot;; display: none; opacity: 1; visibility: hidden;">50.2346</text><text x="148.67466204875225" y="30.03181814713912" text-anchor="middle" dy="-5.6000000000000005" style="fill: rgb(84, 84, 84); font-size: 14px; font-family: &quot;阿里巴巴普惠体 常规&quot;; display: none; opacity: 1; visibility: hidden;">57.6644</text><text x="216.25405388909417" y="90.7555505647488" text-anchor="middle" dy="-5.6000000000000005" style="fill: rgb(84, 84, 84); font-size: 14px; font-family: &quot;阿里巴巴普惠体 常规&quot;; display: none; opacity: 1; visibility: hidden;">47.6777</text><text x="283.8334457294361" y="311.51573522999564" text-anchor="middle" dy="-5.6000000000000005" style="fill: rgb(84, 84, 84); font-size: 14px; font-family: &quot;阿里巴巴普惠体 常规&quot;; display: none; opacity: 1; visibility: hidden;">1.1746</text><text x="351.41283756977805" y="310.6188654972083" text-anchor="middle" dy="-5.6000000000000005" style="fill: rgb(84, 84, 84); font-size: 14px; font-family: &quot;阿里巴巴普惠体 常规&quot;; display: none; opacity: 1; visibility: hidden;">8</text><text x="418.99222941011993" y="309.7219957644209" text-anchor="middle" dy="-5.6000000000000005" style="fill: rgb(84, 84, 84); font-size: 14px; font-family: &quot;阿里巴巴普惠体 常规&quot;; display: none; opacity: 1; visibility: hidden;">0.867</text><text x="486.5716212504619" y="308.82512603163354" text-anchor="middle" dy="-5.6000000000000005" style="fill: rgb(84, 84, 84); font-size: 14px; font-family: &quot;阿里巴巴普惠体 常规&quot;; display: none; opacity: 1; visibility: visible;">0.9087</text></g></g></g></g><g class="axis-x-line" transform="translate(51.91250038146973,330.34999961853026)"><g><g class="axis-group" fill="none" font-size="10" font-family="sans-serif" text-anchor="middle" style="font-size: 14px; font-family: IbarraRealNova-SemiBold;"><path class="domain" stroke="#000" d="M0.5,0.5V0.5H500.5874996185303V0.5" style="stroke: rgb(51, 51, 51); stroke-width: 1; display: block;"/><g class="tick" opacity="1" transform="translate(14.015878677368164, 0)"><line stroke="#000" y2="5" style="stroke: rgb(51, 51, 51); stroke-width: 1; display: block;"/><g transform="translate(0,22)"/><g transform="translate(0,22)"/><g transform="translate(0,22)"/><g transform="translate(0,22)"/><g transform="translate(0,22)"/><g transform="translate(0,22)"/><g transform="translate(0,22)"/><g transform="translate(0,22)"/><g transform="translate(0,22)"/><g transform="translate(0,22)"/><g transform="translate(0,22)"/><g transform="translate(0,22)"/><g transform="translate(0,22)"/><g transform="translate(0,22)"/><g transform="translate(0,22)"/><g transform="translate(0,22)"/><g transform="translate(0,22)"/><g transform="translate(0,22)"/><g transform="translate(0,22)"/><g transform="translate(0,22)"/><g transform="translate(0,22)"/><g transform="translate(0,22)"/><g transform="translate(0,22)"/><g transform="translate(0,22)"/><g transform="translate(0,22)"/><g transform="translate(0,22)"/><g transform="translate(0,22)"/><g transform="translate(0,22)"/><g transform="translate(0,22)"/><g transform="translate(0,22)"/><g transform="translate(0,22)"/><g transform="translate(0,22)"/><g transform="translate(0,22)"/><g transform="translate(0,22)"/><g transform="translate(0,22)"/><g transform="translate(0,22)"/><g transform="translate(0,22)"/><g transform="translate(0,22)"/><g transform="translate(0,22)"/><g transform="translate(0,22)"/><g transform="translate(0,22)"/><g transform="translate(0,22)"/><g transform="translate(0,22)"/><g transform="translate(0,22)"/><g transform="translate(0,22)"/><g transform="translate(0,22)"/><g transform="translate(0,22)"/><g transform="translate(0,22)"/><g transform="translate(0,22)"/><g transform="translate(0,22)"/><g transform="translate(0,22)"/><g transform="translate(0,22)"/><g transform="translate(0,22)"/><g transform="translate(0,22)"/><g transform="translate(0,22)"/><g transform="translate(0,22)"/><g transform="translate(0,22)"/><g transform="translate(0,22)"/><g transform="translate(0,22)"/><g transform="translate(0,22)"/><g transform="translate(0,22)"/><g transform="translate(0,22)"/><g transform="translate(0,22)"/><g transform="translate(0,22)"/><g transform="translate(0,22)"/><g transform="translate(0,22)"/><g transform="translate(0,22)"/><g transform="translate(0,22)"/><g transform="translate(0,22)"/><g transform="translate(0,22)"/><g transform="translate(0,22)"/><g transform="translate(0,22)"/><g transform="translate(0,22)"/><g transform="translate(0,22)"/><g transform="translate(0,22)"/><g transform="translate(0,22)"/><g transform="translate(0,22)"/><g transform="translate(0,22)"/><g transform="translate(0,22)"/><g transform="translate(0,22)"/><g transform="translate(0,22)"/><g transform="translate(0,22)"/><g transform="translate(0,22)"/><g transform="translate(0,22)"/><g transform="translate(0,22)"/><g transform="translate(0,22)"/><g transform="translate(0,22)"/><g transform="translate(0,22)"/><g transform="translate(0,22)"/><g transform="translate(0,22)"/><g transform="translate(0,22)"/><g transform="translate(0,22)"/><g transform="translate(0,22)"/><g transform="translate(0,22)"/><g transform="translate(0,22)"/><g transform="translate(0,22)"/><g transform="translate(0,22)"/><g transform="translate(0,22)"/><g transform="translate(0,22)"/><g transform="translate(0,22)"/><g transform="translate(0,22)"/><g transform="translate(0,22)"/><g transform="translate(0,22)"/><g transform="translate(0,22)"/><g transform="translate(0,22)"/><g transform="translate(0,22)"/><g transform="translate(0,22)"/><g transform="translate(0,22)"/><g transform="translate(0,22)"/><g transform="translate(0,22)"/><g transform="translate(0,22)"/><g transform="translate(0,22)"/><g transform="translate(0,22)"/><g transform="translate(0,22)"/><g transform="translate(0,22)"/><g transform="translate(0,22)"/><g transform="translate(0,22)"/><g transform="translate(0,22)"/><g transform="translate(0,22)"/><g transform="translate(0,22)"/><g transform="translate(0,22)"/><g transform="translate(0,22)"/><g transform="translate(0,22)"/><g transform="translate(0,22)"/><g transform="translate(0,22)"/><g transform="translate(0,22)"/><g transform="translate(0,22)"/><g transform="translate(0,22)"/><g transform="translate(0,22)"/><g transform="translate(0,22)"/><g transform="translate(0,22)"/><g transform="translate(0,22)"/><g transform="translate(0,22)"/><g transform="translate(0,22)"/><g transform="translate(0,22)"/><g transform="translate(0,22)"/><g transform="translate(0,22)"/><g transform="translate(0,22)"/><g transform="translate(0,22)"/><g transform="translate(0,22)"/><g transform="translate(0,22)"/><g transform="translate(0,22)"/><g transform="translate(0,22)"/><g transform="translate(0,22)"/><g transform="translate(0,22)"/><g transform="translate(0,22)"/><g transform="translate(0,22)"/><g transform="translate(0,22)"/><g transform="translate(0,22)"/><g transform="translate(0,22)"/><g transform="translate(0,22)"/><g transform="translate(0,22)"/><g transform="translate(0,22)"/><g transform="translate(0,22)"/><g transform="translate(0,22)"/><g transform="translate(0,22)"><text opacity="1" transform="translate(0,0) rotate(0)" style="text-anchor: middle; display: block; fill: rgb(84, 84, 84);">-15%</text></g></g><g class="tick" opacity="1" transform="translate(81.59526824951172, 0)"><line stroke="#000" y2="5" style="stroke: rgb(51, 51, 51); stroke-width: 1; display: block;"/><g transform="translate(0,22)"/><g transform="translate(0,22)"/><g transform="translate(0,22)"/><g transform="translate(0,22)"/><g transform="translate(0,22)"/><g transform="translate(0,22)"/><g transform="translate(0,22)"/><g transform="translate(0,22)"/><g transform="translate(0,22)"/><g transform="translate(0,22)"/><g transform="translate(0,22)"/><g transform="translate(0,22)"/><g transform="translate(0,22)"/><g transform="translate(0,22)"/><g transform="translate(0,22)"/><g transform="translate(0,22)"/><g transform="translate(0,22)"/><g transform="translate(0,22)"/><g transform="translate(0,22)"/><g transform="translate(0,22)"/><g transform="translate(0,22)"/><g transform="translate(0,22)"/><g transform="translate(0,22)"/><g transform="translate(0,22)"/><g transform="translate(0,22)"/><g transform="translate(0,22)"/><g transform="translate(0,22)"/><g transform="translate(0,22)"/><g transform="translate(0,22)"/><g transform="translate(0,22)"/><g transform="translate(0,22)"/><g transform="translate(0,22)"/><g transform="translate(0,22)"/><g transform="translate(0,22)"/><g transform="translate(0,22)"/><g transform="translate(0,22)"/><g transform="translate(0,22)"/><g transform="translate(0,22)"/><g transform="translate(0,22)"/><g transform="translate(0,22)"/><g transform="translate(0,22)"/><g transform="translate(0,22)"/><g transform="translate(0,22)"/><g transform="translate(0,22)"/><g transform="translate(0,22)"/><g transform="translate(0,22)"/><g transform="translate(0,22)"/><g transform="translate(0,22)"/><g transform="translate(0,22)"/><g transform="translate(0,22)"/><g transform="translate(0,22)"/><g transform="translate(0,22)"/><g transform="translate(0,22)"/><g transform="translate(0,22)"/><g transform="translate(0,22)"/><g transform="translate(0,22)"/><g transform="translate(0,22)"/><g transform="translate(0,22)"/><g transform="translate(0,22)"/><g transform="translate(0,22)"/><g transform="translate(0,22)"/><g transform="translate(0,22)"/><g transform="translate(0,22)"/><g transform="translate(0,22)"/><g transform="translate(0,22)"/><g transform="translate(0,22)"/><g transform="translate(0,22)"/><g transform="translate(0,22)"/><g transform="translate(0,22)"/><g transform="translate(0,22)"/><g transform="translate(0,22)"/><g transform="translate(0,22)"/><g transform="translate(0,22)"/><g transform="translate(0,22)"/><g transform="translate(0,22)"/><g transform="translate(0,22)"/><g transform="translate(0,22)"/><g transform="translate(0,22)"/><g transform="translate(0,22)"/><g transform="translate(0,22)"/><g transform="translate(0,22)"/><g transform="translate(0,22)"/><g transform="translate(0,22)"/><g transform="translate(0,22)"/><g transform="translate(0,22)"/><g transform="translate(0,22)"/><g transform="translate(0,22)"/><g transform="translate(0,22)"/><g transform="translate(0,22)"/><g transform="translate(0,22)"/><g transform="translate(0,22)"/><g transform="translate(0,22)"/><g transform="translate(0,22)"/><g transform="translate(0,22)"/><g transform="translate(0,22)"/><g transform="translate(0,22)"/><g transform="translate(0,22)"/><g transform="translate(0,22)"/><g transform="translate(0,22)"/><g transform="translate(0,22)"/><g transform="translate(0,22)"/><g transform="translate(0,22)"/><g transform="translate(0,22)"/><g transform="translate(0,22)"/><g transform="translate(0,22)"/><g transform="translate(0,22)"/><g transform="translate(0,22)"/><g transform="translate(0,22)"/><g transform="translate(0,22)"/><g transform="translate(0,22)"/><g transform="translate(0,22)"/><g transform="translate(0,22)"/><g transform="translate(0,22)"/><g transform="translate(0,22)"/><g transform="translate(0,22)"/><g transform="translate(0,22)"/><g transform="translate(0,22)"/><g transform="translate(0,22)"/><g transform="translate(0,22)"/><g transform="translate(0,22)"/><g transform="translate(0,22)"/><g transform="translate(0,22)"/><g transform="translate(0,22)"/><g transform="translate(0,22)"/><g transform="translate(0,22)"/><g transform="translate(0,22)"/><g transform="translate(0,22)"/><g transform="translate(0,22)"/><g transform="translate(0,22)"/><g transform="translate(0,22)"/><g transform="translate(0,22)"/><g transform="translate(0,22)"/><g transform="translate(0,22)"/><g transform="translate(0,22)"/><g transform="translate(0,22)"/><g transform="translate(0,22)"/><g transform="translate(0,22)"/><g transform="translate(0,22)"/><g transform="translate(0,22)"/><g transform="translate(0,22)"/><g transform="translate(0,22)"/><g transform="translate(0,22)"/><g transform="translate(0,22)"/><g transform="translate(0,22)"/><g transform="translate(0,22)"/><g transform="translate(0,22)"/><g transform="translate(0,22)"/><g transform="translate(0,22)"/><g transform="translate(0,22)"/><g transform="translate(0,22)"/><g transform="translate(0,22)"/><g transform="translate(0,22)"/><g transform="translate(0,22)"/><g transform="translate(0,22)"><text opacity="1" transform="translate(0,0) rotate(0)" style="text-anchor: middle; display: block; fill: rgb(84, 84, 84);">-10%</text></g></g><g class="tick" opacity="1" transform="translate(149.17466735839844, 0)"><line stroke="#000" y2="5" style="stroke: rgb(51, 51, 51); stroke-width: 1; display: block;"/><g transform="translate(0,22)"/><g transform="translate(0,22)"/><g transform="translate(0,22)"/><g transform="translate(0,22)"/><g transform="translate(0,22)"/><g transform="translate(0,22)"/><g transform="translate(0,22)"/><g transform="translate(0,22)"/><g transform="translate(0,22)"/><g transform="translate(0,22)"/><g transform="translate(0,22)"/><g transform="translate(0,22)"/><g transform="translate(0,22)"/><g transform="translate(0,22)"/><g transform="translate(0,22)"/><g transform="translate(0,22)"/><g transform="translate(0,22)"/><g transform="translate(0,22)"/><g transform="translate(0,22)"/><g transform="translate(0,22)"/><g transform="translate(0,22)"/><g transform="translate(0,22)"/><g transform="translate(0,22)"/><g transform="translate(0,22)"/><g transform="translate(0,22)"/><g transform="translate(0,22)"/><g transform="translate(0,22)"/><g transform="translate(0,22)"/><g transform="translate(0,22)"/><g transform="translate(0,22)"/><g transform="translate(0,22)"/><g transform="translate(0,22)"/><g transform="translate(0,22)"/><g transform="translate(0,22)"/><g transform="translate(0,22)"/><g transform="translate(0,22)"/><g transform="translate(0,22)"/><g transform="translate(0,22)"/><g transform="translate(0,22)"/><g transform="translate(0,22)"/><g transform="translate(0,22)"/><g transform="translate(0,22)"/><g transform="translate(0,22)"/><g transform="translate(0,22)"/><g transform="translate(0,22)"/><g transform="translate(0,22)"/><g transform="translate(0,22)"/><g transform="translate(0,22)"/><g transform="translate(0,22)"/><g transform="translate(0,22)"/><g transform="translate(0,22)"/><g transform="translate(0,22)"/><g transform="translate(0,22)"/><g transform="translate(0,22)"/><g transform="translate(0,22)"/><g transform="translate(0,22)"/><g transform="translate(0,22)"/><g transform="translate(0,22)"/><g transform="translate(0,22)"/><g transform="translate(0,22)"/><g transform="translate(0,22)"/><g transform="translate(0,22)"/><g transform="translate(0,22)"/><g transform="translate(0,22)"/><g transform="translate(0,22)"/><g transform="translate(0,22)"/><g transform="translate(0,22)"/><g transform="translate(0,22)"/><g transform="translate(0,22)"/><g transform="translate(0,22)"/><g transform="translate(0,22)"/><g transform="translate(0,22)"/><g transform="translate(0,22)"/><g transform="translate(0,22)"/><g transform="translate(0,22)"/><g transform="translate(0,22)"/><g transform="translate(0,22)"/><g transform="translate(0,22)"/><g transform="translate(0,22)"/><g transform="translate(0,22)"/><g transform="translate(0,22)"/><g transform="translate(0,22)"/><g transform="translate(0,22)"/><g transform="translate(0,22)"/><g transform="translate(0,22)"/><g transform="translate(0,22)"/><g transform="translate(0,22)"/><g transform="translate(0,22)"/><g transform="translate(0,22)"/><g transform="translate(0,22)"/><g transform="translate(0,22)"/><g transform="translate(0,22)"/><g transform="translate(0,22)"/><g transform="translate(0,22)"/><g transform="translate(0,22)"/><g transform="translate(0,22)"/><g transform="translate(0,22)"/><g transform="translate(0,22)"/><g transform="translate(0,22)"/><g transform="translate(0,22)"/><g transform="translate(0,22)"/><g transform="translate(0,22)"/><g transform="translate(0,22)"/><g transform="translate(0,22)"/><g transform="translate(0,22)"/><g transform="translate(0,22)"/><g transform="translate(0,22)"/><g transform="translate(0,22)"/><g transform="translate(0,22)"/><g transform="translate(0,22)"/><g transform="translate(0,22)"/><g transform="translate(0,22)"/><g transform="translate(0,22)"/><g transform="translate(0,22)"/><g transform="translate(0,22)"/><g transform="translate(0,22)"/><g transform="translate(0,22)"/><g transform="translate(0,22)"/><g transform="translate(0,22)"/><g transform="translate(0,22)"/><g transform="translate(0,22)"/><g transform="translate(0,22)"/><g transform="translate(0,22)"/><g transform="translate(0,22)"/><g transform="translate(0,22)"/><g transform="translate(0,22)"/><g transform="translate(0,22)"/><g transform="translate(0,22)"/><g transform="translate(0,22)"/><g transform="translate(0,22)"/><g transform="translate(0,22)"/><g transform="translate(0,22)"/><g transform="translate(0,22)"/><g transform="translate(0,22)"/><g transform="translate(0,22)"/><g transform="translate(0,22)"/><g transform="translate(0,22)"/><g transform="translate(0,22)"/><g transform="translate(0,22)"/><g transform="translate(0,22)"/><g transform="translate(0,22)"/><g transform="translate(0,22)"/><g transform="translate(0,22)"/><g transform="translate(0,22)"/><g transform="translate(0,22)"/><g transform="translate(0,22)"/><g transform="translate(0,22)"/><g transform="translate(0,22)"/><g transform="translate(0,22)"/><g transform="translate(0,22)"/><g transform="translate(0,22)"/><g transform="translate(0,22)"><text opacity="1" transform="translate(0,0) rotate(0)" style="text-anchor: middle; display: block; fill: rgb(84, 84, 84);">5%</text></g></g><g class="tick" opacity="1" transform="translate(216.75405883789062, 0)"><line stroke="#000" y2="5" style="stroke: rgb(51, 51, 51); stroke-width: 1; display: block;"/><g transform="translate(0,22)"/><g transform="translate(0,22)"/><g transform="translate(0,22)"/><g transform="translate(0,22)"/><g transform="translate(0,22)"/><g transform="translate(0,22)"/><g transform="translate(0,22)"/><g transform="translate(0,22)"/><g transform="translate(0,22)"/><g transform="translate(0,22)"/><g transform="translate(0,22)"/><g transform="translate(0,22)"/><g transform="translate(0,22)"/><g transform="translate(0,22)"/><g transform="translate(0,22)"/><g transform="translate(0,22)"/><g transform="translate(0,22)"/><g transform="translate(0,22)"/><g transform="translate(0,22)"/><g transform="translate(0,22)"/><g transform="translate(0,22)"/><g transform="translate(0,22)"/><g transform="translate(0,22)"/><g transform="translate(0,22)"/><g transform="translate(0,22)"/><g transform="translate(0,22)"/><g transform="translate(0,22)"/><g transform="translate(0,22)"/><g transform="translate(0,22)"/><g transform="translate(0,22)"/><g transform="translate(0,22)"/><g transform="translate(0,22)"/><g transform="translate(0,22)"/><g transform="translate(0,22)"/><g transform="translate(0,22)"/><g transform="translate(0,22)"/><g transform="translate(0,22)"/><g transform="translate(0,22)"/><g transform="translate(0,22)"/><g transform="translate(0,22)"/><g transform="translate(0,22)"/><g transform="translate(0,22)"/><g transform="translate(0,22)"/><g transform="translate(0,22)"/><g transform="translate(0,22)"/><g transform="translate(0,22)"/><g transform="translate(0,22)"/><g transform="translate(0,22)"/><g transform="translate(0,22)"/><g transform="translate(0,22)"/><g transform="translate(0,22)"/><g transform="translate(0,22)"/><g transform="translate(0,22)"/><g transform="translate(0,22)"/><g transform="translate(0,22)"/><g transform="translate(0,22)"/><g transform="translate(0,22)"/><g transform="translate(0,22)"/><g transform="translate(0,22)"/><g transform="translate(0,22)"/><g transform="translate(0,22)"/><g transform="translate(0,22)"/><g transform="translate(0,22)"/><g transform="translate(0,22)"/><g transform="translate(0,22)"/><g transform="translate(0,22)"/><g transform="translate(0,22)"/><g transform="translate(0,22)"/><g transform="translate(0,22)"/><g transform="translate(0,22)"/><g transform="translate(0,22)"/><g transform="translate(0,22)"/><g transform="translate(0,22)"/><g transform="translate(0,22)"/><g transform="translate(0,22)"/><g transform="translate(0,22)"/><g transform="translate(0,22)"/><g transform="translate(0,22)"/><g transform="translate(0,22)"/><g transform="translate(0,22)"/><g transform="translate(0,22)"/><g transform="translate(0,22)"/><g transform="translate(0,22)"/><g transform="translate(0,22)"/><g transform="translate(0,22)"/><g transform="translate(0,22)"/><g transform="translate(0,22)"/><g transform="translate(0,22)"/><g transform="translate(0,22)"/><g transform="translate(0,22)"/><g transform="translate(0,22)"/><g transform="translate(0,22)"/><g transform="translate(0,22)"/><g transform="translate(0,22)"/><g transform="translate(0,22)"/><g transform="translate(0,22)"/><g transform="translate(0,22)"/><g transform="translate(0,22)"/><g transform="translate(0,22)"/><g transform="translate(0,22)"/><g transform="translate(0,22)"/><g transform="translate(0,22)"/><g transform="translate(0,22)"/><g transform="translate(0,22)"/><g transform="translate(0,22)"/><g transform="translate(0,22)"/><g transform="translate(0,22)"/><g transform="translate(0,22)"/><g transform="translate(0,22)"/><g transform="translate(0,22)"/><g transform="translate(0,22)"/><g transform="translate(0,22)"/><g transform="translate(0,22)"/><g transform="translate(0,22)"/><g transform="translate(0,22)"/><g transform="translate(0,22)"/><g transform="translate(0,22)"/><g transform="translate(0,22)"/><g transform="translate(0,22)"/><g transform="translate(0,22)"/><g transform="translate(0,22)"/><g transform="translate(0,22)"/><g transform="translate(0,22)"/><g transform="translate(0,22)"/><g transform="translate(0,22)"/><g transform="translate(0,22)"/><g transform="translate(0,22)"/><g transform="translate(0,22)"/><g transform="translate(0,22)"/><g transform="translate(0,22)"/><g transform="translate(0,22)"/><g transform="translate(0,22)"/><g transform="translate(0,22)"/><g transform="translate(0,22)"/><g transform="translate(0,22)"/><g transform="translate(0,22)"/><g transform="translate(0,22)"/><g transform="translate(0,22)"/><g transform="translate(0,22)"/><g transform="translate(0,22)"/><g transform="translate(0,22)"/><g transform="translate(0,22)"/><g transform="translate(0,22)"/><g transform="translate(0,22)"/><g transform="translate(0,22)"/><g transform="translate(0,22)"/><g transform="translate(0,22)"/><g transform="translate(0,22)"/><g transform="translate(0,22)"/><g transform="translate(0,22)"><text opacity="1" transform="translate(0,0) rotate(0)" style="text-anchor: middle; display: block; fill: rgb(84, 84, 84);">0%</text></g></g><g class="tick" opacity="1" transform="translate(284.33343505859375, 0)"><line stroke="#000" y2="5" style="stroke: rgb(51, 51, 51); stroke-width: 1; display: block;"/><g transform="translate(0,22)"/><g transform="translate(0,22)"/><g transform="translate(0,22)"/><g transform="translate(0,22)"/><g transform="translate(0,22)"/><g transform="translate(0,22)"/><g transform="translate(0,22)"/><g transform="translate(0,22)"/><g transform="translate(0,22)"/><g transform="translate(0,22)"/><g transform="translate(0,22)"/><g transform="translate(0,22)"/><g transform="translate(0,22)"/><g transform="translate(0,22)"/><g transform="translate(0,22)"/><g transform="translate(0,22)"/><g transform="translate(0,22)"/><g transform="translate(0,22)"/><g transform="translate(0,22)"/><g transform="translate(0,22)"/><g transform="translate(0,22)"/><g transform="translate(0,22)"/><g transform="translate(0,22)"/><g transform="translate(0,22)"/><g transform="translate(0,22)"/><g transform="translate(0,22)"/><g transform="translate(0,22)"/><g transform="translate(0,22)"/><g transform="translate(0,22)"/><g transform="translate(0,22)"/><g transform="translate(0,22)"/><g transform="translate(0,22)"/><g transform="translate(0,22)"/><g transform="translate(0,22)"/><g transform="translate(0,22)"/><g transform="translate(0,22)"/><g transform="translate(0,22)"/><g transform="translate(0,22)"/><g transform="translate(0,22)"/><g transform="translate(0,22)"/><g transform="translate(0,22)"/><g transform="translate(0,22)"/><g transform="translate(0,22)"/><g transform="translate(0,22)"/><g transform="translate(0,22)"/><g transform="translate(0,22)"/><g transform="translate(0,22)"/><g transform="translate(0,22)"/><g transform="translate(0,22)"/><g transform="translate(0,22)"/><g transform="translate(0,22)"/><g transform="translate(0,22)"/><g transform="translate(0,22)"/><g transform="translate(0,22)"/><g transform="translate(0,22)"/><g transform="translate(0,22)"/><g transform="translate(0,22)"/><g transform="translate(0,22)"/><g transform="translate(0,22)"/><g transform="translate(0,22)"/><g transform="translate(0,22)"/><g transform="translate(0,22)"/><g transform="translate(0,22)"/><g transform="translate(0,22)"/><g transform="translate(0,22)"/><g transform="translate(0,22)"/><g transform="translate(0,22)"/><g transform="translate(0,22)"/><g transform="translate(0,22)"/><g transform="translate(0,22)"/><g transform="translate(0,22)"/><g transform="translate(0,22)"/><g transform="translate(0,22)"/><g transform="translate(0,22)"/><g transform="translate(0,22)"/><g transform="translate(0,22)"/><g transform="translate(0,22)"/><g transform="translate(0,22)"/><g transform="translate(0,22)"/><g transform="translate(0,22)"/><g transform="translate(0,22)"/><g transform="translate(0,22)"/><g transform="translate(0,22)"/><g transform="translate(0,22)"/><g transform="translate(0,22)"/><g transform="translate(0,22)"/><g transform="translate(0,22)"/><g transform="translate(0,22)"/><g transform="translate(0,22)"/><g transform="translate(0,22)"/><g transform="translate(0,22)"/><g transform="translate(0,22)"/><g transform="translate(0,22)"/><g transform="translate(0,22)"/><g transform="translate(0,22)"/><g transform="translate(0,22)"/><g transform="translate(0,22)"/><g transform="translate(0,22)"/><g transform="translate(0,22)"/><g transform="translate(0,22)"/><g transform="translate(0,22)"/><g transform="translate(0,22)"/><g transform="translate(0,22)"/><g transform="translate(0,22)"/><g transform="translate(0,22)"/><g transform="translate(0,22)"/><g transform="translate(0,22)"/><g transform="translate(0,22)"/><g transform="translate(0,22)"/><g transform="translate(0,22)"/><g transform="translate(0,22)"/><g transform="translate(0,22)"/><g transform="translate(0,22)"/><g transform="translate(0,22)"/><g transform="translate(0,22)"/><g transform="translate(0,22)"/><g transform="translate(0,22)"/><g transform="translate(0,22)"/><g transform="translate(0,22)"/><g transform="translate(0,22)"/><g transform="translate(0,22)"/><g transform="translate(0,22)"/><g transform="translate(0,22)"/><g transform="translate(0,22)"/><g transform="translate(0,22)"/><g transform="translate(0,22)"/><g transform="translate(0,22)"/><g transform="translate(0,22)"/><g transform="translate(0,22)"/><g transform="translate(0,22)"/><g transform="translate(0,22)"/><g transform="translate(0,22)"/><g transform="translate(0,22)"/><g transform="translate(0,22)"/><g transform="translate(0,22)"/><g transform="translate(0,22)"/><g transform="translate(0,22)"/><g transform="translate(0,22)"/><g transform="translate(0,22)"/><g transform="translate(0,22)"/><g transform="translate(0,22)"/><g transform="translate(0,22)"/><g transform="translate(0,22)"/><g transform="translate(0,22)"/><g transform="translate(0,22)"/><g transform="translate(0,22)"/><g transform="translate(0,22)"/><g transform="translate(0,22)"><text opacity="1" transform="translate(0,0) rotate(0)" style="text-anchor: middle; display: block; fill: rgb(84, 84, 84);">5%</text></g></g><g class="tick" opacity="1" transform="translate(351.912841796875, 0)"><line stroke="#000" y2="5" style="stroke: rgb(51, 51, 51); stroke-width: 1; display: block;"/><g transform="translate(0,22)"/><g transform="translate(0,22)"/><g transform="translate(0,22)"/><g transform="translate(0,22)"/><g transform="translate(0,22)"/><g transform="translate(0,22)"/><g transform="translate(0,22)"/><g transform="translate(0,22)"/><g transform="translate(0,22)"/><g transform="translate(0,22)"/><g transform="translate(0,22)"/><g transform="translate(0,22)"/><g transform="translate(0,22)"/><g transform="translate(0,22)"/><g transform="translate(0,22)"/><g transform="translate(0,22)"/><g transform="translate(0,22)"/><g transform="translate(0,22)"/><g transform="translate(0,22)"/><g transform="translate(0,22)"/><g transform="translate(0,22)"/><g transform="translate(0,22)"/><g transform="translate(0,22)"/><g transform="translate(0,22)"/><g transform="translate(0,22)"/><g transform="translate(0,22)"/><g transform="translate(0,22)"/><g transform="translate(0,22)"/><g transform="translate(0,22)"/><g transform="translate(0,22)"/><g transform="translate(0,22)"/><g transform="translate(0,22)"/><g transform="translate(0,22)"/><g transform="translate(0,22)"/><g transform="translate(0,22)"/><g transform="translate(0,22)"/><g transform="translate(0,22)"/><g transform="translate(0,22)"/><g transform="translate(0,22)"/><g transform="translate(0,22)"/><g transform="translate(0,22)"/><g transform="translate(0,22)"/><g transform="translate(0,22)"/><g transform="translate(0,22)"/><g transform="translate(0,22)"/><g transform="translate(0,22)"/><g transform="translate(0,22)"/><g transform="translate(0,22)"/><g transform="translate(0,22)"/><g transform="translate(0,22)"/><g transform="translate(0,22)"/><g transform="translate(0,22)"/><g transform="translate(0,22)"/><g transform="translate(0,22)"/><g transform="translate(0,22)"/><g transform="translate(0,22)"/><g transform="translate(0,22)"/><g transform="translate(0,22)"/><g transform="translate(0,22)"/><g transform="translate(0,22)"/><g transform="translate(0,22)"/><g transform="translate(0,22)"/><g transform="translate(0,22)"/><g transform="translate(0,22)"/><g transform="translate(0,22)"/><g transform="translate(0,22)"/><g transform="translate(0,22)"/><g transform="translate(0,22)"/><g transform="translate(0,22)"/><g transform="translate(0,22)"/><g transform="translate(0,22)"/><g transform="translate(0,22)"/><g transform="translate(0,22)"/><g transform="translate(0,22)"/><g transform="translate(0,22)"/><g transform="translate(0,22)"/><g transform="translate(0,22)"/><g transform="translate(0,22)"/><g transform="translate(0,22)"/><g transform="translate(0,22)"/><g transform="translate(0,22)"/><g transform="translate(0,22)"/><g transform="translate(0,22)"/><g transform="translate(0,22)"/><g transform="translate(0,22)"/><g transform="translate(0,22)"/><g transform="translate(0,22)"/><g transform="translate(0,22)"/><g transform="translate(0,22)"/><g transform="translate(0,22)"/><g transform="translate(0,22)"/><g transform="translate(0,22)"/><g transform="translate(0,22)"/><g transform="translate(0,22)"/><g transform="translate(0,22)"/><g transform="translate(0,22)"/><g transform="translate(0,22)"/><g transform="translate(0,22)"/><g transform="translate(0,22)"/><g transform="translate(0,22)"/><g transform="translate(0,22)"/><g transform="translate(0,22)"/><g transform="translate(0,22)"/><g transform="translate(0,22)"/><g transform="translate(0,22)"/><g transform="translate(0,22)"/><g transform="translate(0,22)"/><g transform="translate(0,22)"/><g transform="translate(0,22)"/><g transform="translate(0,22)"/><g transform="translate(0,22)"/><g transform="translate(0,22)"/><g transform="translate(0,22)"/><g transform="translate(0,22)"/><g transform="translate(0,22)"/><g transform="translate(0,22)"/><g transform="translate(0,22)"/><g transform="translate(0,22)"/><g transform="translate(0,22)"/><g transform="translate(0,22)"/><g transform="translate(0,22)"/><g transform="translate(0,22)"/><g transform="translate(0,22)"/><g transform="translate(0,22)"/><g transform="translate(0,22)"/><g transform="translate(0,22)"/><g transform="translate(0,22)"/><g transform="translate(0,22)"/><g transform="translate(0,22)"/><g transform="translate(0,22)"/><g transform="translate(0,22)"/><g transform="translate(0,22)"/><g transform="translate(0,22)"/><g transform="translate(0,22)"/><g transform="translate(0,22)"/><g transform="translate(0,22)"/><g transform="translate(0,22)"/><g transform="translate(0,22)"/><g transform="translate(0,22)"/><g transform="translate(0,22)"/><g transform="translate(0,22)"/><g transform="translate(0,22)"/><g transform="translate(0,22)"/><g transform="translate(0,22)"/><g transform="translate(0,22)"/><g transform="translate(0,22)"><text opacity="1" transform="translate(0,0) rotate(0)" style="text-anchor: middle; display: block; fill: rgb(84, 84, 84);">10%</text></g></g><g class="tick" opacity="1" transform="translate(419.4922180175781, 0)"><line stroke="#000" y2="5" style="stroke: rgb(51, 51, 51); stroke-width: 1; display: block;"/><g transform="translate(0,22)"/><g transform="translate(0,22)"/><g transform="translate(0,22)"/><g transform="translate(0,22)"/><g transform="translate(0,22)"/><g transform="translate(0,22)"/><g transform="translate(0,22)"/><g transform="translate(0,22)"/><g transform="translate(0,22)"/><g transform="translate(0,22)"/><g transform="translate(0,22)"/><g transform="translate(0,22)"/><g transform="translate(0,22)"/><g transform="translate(0,22)"/><g transform="translate(0,22)"/><g transform="translate(0,22)"/><g transform="translate(0,22)"/><g transform="translate(0,22)"/><g transform="translate(0,22)"/><g transform="translate(0,22)"/><g transform="translate(0,22)"/><g transform="translate(0,22)"/><g transform="translate(0,22)"/><g transform="translate(0,22)"/><g transform="translate(0,22)"/><g transform="translate(0,22)"/><g transform="translate(0,22)"/><g transform="translate(0,22)"/><g transform="translate(0,22)"/><g transform="translate(0,22)"/><g transform="translate(0,22)"/><g transform="translate(0,22)"/><g transform="translate(0,22)"/><g transform="translate(0,22)"/><g transform="translate(0,22)"/><g transform="translate(0,22)"/><g transform="translate(0,22)"/><g transform="translate(0,22)"/><g transform="translate(0,22)"/><g transform="translate(0,22)"/><g transform="translate(0,22)"/><g transform="translate(0,22)"/><g transform="translate(0,22)"/><g transform="translate(0,22)"/><g transform="translate(0,22)"/><g transform="translate(0,22)"/><g transform="translate(0,22)"/><g transform="translate(0,22)"/><g transform="translate(0,22)"/><g transform="translate(0,22)"/><g transform="translate(0,22)"/><g transform="translate(0,22)"/><g transform="translate(0,22)"/><g transform="translate(0,22)"/><g transform="translate(0,22)"/><g transform="translate(0,22)"/><g transform="translate(0,22)"/><g transform="translate(0,22)"/><g transform="translate(0,22)"/><g transform="translate(0,22)"/><g transform="translate(0,22)"/><g transform="translate(0,22)"/><g transform="translate(0,22)"/><g transform="translate(0,22)"/><g transform="translate(0,22)"/><g transform="translate(0,22)"/><g transform="translate(0,22)"/><g transform="translate(0,22)"/><g transform="translate(0,22)"/><g transform="translate(0,22)"/><g transform="translate(0,22)"/><g transform="translate(0,22)"/><g transform="translate(0,22)"/><g transform="translate(0,22)"/><g transform="translate(0,22)"/><g transform="translate(0,22)"/><g transform="translate(0,22)"/><g transform="translate(0,22)"/><g transform="translate(0,22)"/><g transform="translate(0,22)"/><g transform="translate(0,22)"/><g transform="translate(0,22)"/><g transform="translate(0,22)"/><g transform="translate(0,22)"/><g transform="translate(0,22)"/><g transform="translate(0,22)"/><g transform="translate(0,22)"/><g transform="translate(0,22)"/><g transform="translate(0,22)"/><g transform="translate(0,22)"/><g transform="translate(0,22)"/><g transform="translate(0,22)"/><g transform="translate(0,22)"/><g transform="translate(0,22)"/><g transform="translate(0,22)"/><g transform="translate(0,22)"/><g transform="translate(0,22)"/><g transform="translate(0,22)"/><g transform="translate(0,22)"/><g transform="translate(0,22)"/><g transform="translate(0,22)"/><g transform="translate(0,22)"/><g transform="translate(0,22)"/><g transform="translate(0,22)"/><g transform="translate(0,22)"/><g transform="translate(0,22)"/><g transform="translate(0,22)"/><g transform="translate(0,22)"/><g transform="translate(0,22)"/><g transform="translate(0,22)"/><g transform="translate(0,22)"/><g transform="translate(0,22)"/><g transform="translate(0,22)"/><g transform="translate(0,22)"/><g transform="translate(0,22)"/><g transform="translate(0,22)"/><g transform="translate(0,22)"/><g transform="translate(0,22)"/><g transform="translate(0,22)"/><g transform="translate(0,22)"/><g transform="translate(0,22)"/><g transform="translate(0,22)"/><g transform="translate(0,22)"/><g transform="translate(0,22)"/><g transform="translate(0,22)"/><g transform="translate(0,22)"/><g transform="translate(0,22)"/><g transform="translate(0,22)"/><g transform="translate(0,22)"/><g transform="translate(0,22)"/><g transform="translate(0,22)"/><g transform="translate(0,22)"/><g transform="translate(0,22)"/><g transform="translate(0,22)"/><g transform="translate(0,22)"/><g transform="translate(0,22)"/><g transform="translate(0,22)"/><g transform="translate(0,22)"/><g transform="translate(0,22)"/><g transform="translate(0,22)"/><g transform="translate(0,22)"/><g transform="translate(0,22)"/><g transform="translate(0,22)"/><g transform="translate(0,22)"><text opacity="1" transform="translate(0,0) rotate(0)" style="text-anchor: middle; display: block; fill: rgb(84, 84, 84);">15%</text></g></g><g class="tick" opacity="1" transform="translate(487.0716247558594, 0)"><line stroke="#000" y2="5" style="stroke: rgb(51, 51, 51); stroke-width: 1; display: block;"/><g transform="translate(0,22)"/><g transform="translate(0,22)"/><g transform="translate(0,22)"/><g transform="translate(0,22)"/><g transform="translate(0,22)"/><g transform="translate(0,22)"/><g transform="translate(0,22)"/><g transform="translate(0,22)"/><g transform="translate(0,22)"/><g transform="translate(0,22)"/><g transform="translate(0,22)"/><g transform="translate(0,22)"/><g transform="translate(0,22)"/><g transform="translate(0,22)"/><g transform="translate(0,22)"/><g transform="translate(0,22)"/><g transform="translate(0,22)"/><g transform="translate(0,22)"/><g transform="translate(0,22)"/><g transform="translate(0,22)"/><g transform="translate(0,22)"/><g transform="translate(0,22)"/><g transform="translate(0,22)"/><g transform="translate(0,22)"/><g transform="translate(0,22)"/><g transform="translate(0,22)"/><g transform="translate(0,22)"/><g transform="translate(0,22)"/><g transform="translate(0,22)"/><g transform="translate(0,22)"/><g transform="translate(0,22)"/><g transform="translate(0,22)"/><g transform="translate(0,22)"/><g transform="translate(0,22)"/><g transform="translate(0,22)"/><g transform="translate(0,22)"/><g transform="translate(0,22)"/><g transform="translate(0,22)"/><g transform="translate(0,22)"/><g transform="translate(0,22)"/><g transform="translate(0,22)"/><g transform="translate(0,22)"/><g transform="translate(0,22)"/><g transform="translate(0,22)"/><g transform="translate(0,22)"/><g transform="translate(0,22)"/><g transform="translate(0,22)"/><g transform="translate(0,22)"/><g transform="translate(0,22)"/><g transform="translate(0,22)"/><g transform="translate(0,22)"/><g transform="translate(0,22)"/><g transform="translate(0,22)"/><g transform="translate(0,22)"/><g transform="translate(0,22)"/><g transform="translate(0,22)"/><g transform="translate(0,22)"/><g transform="translate(0,22)"/><g transform="translate(0,22)"/><g transform="translate(0,22)"/><g transform="translate(0,22)"/><g transform="translate(0,22)"/><g transform="translate(0,22)"/><g transform="translate(0,22)"/><g transform="translate(0,22)"/><g transform="translate(0,22)"/><g transform="translate(0,22)"/><g transform="translate(0,22)"/><g transform="translate(0,22)"/><g transform="translate(0,22)"/><g transform="translate(0,22)"/><g transform="translate(0,22)"/><g transform="translate(0,22)"/><g transform="translate(0,22)"/><g transform="translate(0,22)"/><g transform="translate(0,22)"/><g transform="translate(0,22)"/><g transform="translate(0,22)"/><g transform="translate(0,22)"/><g transform="translate(0,22)"/><g transform="translate(0,22)"/><g transform="translate(0,22)"/><g transform="translate(0,22)"/><g transform="translate(0,22)"/><g transform="translate(0,22)"/><g transform="translate(0,22)"/><g transform="translate(0,22)"/><g transform="translate(0,22)"/><g transform="translate(0,22)"/><g transform="translate(0,22)"/><g transform="translate(0,22)"/><g transform="translate(0,22)"/><g transform="translate(0,22)"/><g transform="translate(0,22)"/><g transform="translate(0,22)"/><g transform="translate(0,22)"/><g transform="translate(0,22)"/><g transform="translate(0,22)"/><g transform="translate(0,22)"/><g transform="translate(0,22)"/><g transform="translate(0,22)"/><g transform="translate(0,22)"/><g transform="translate(0,22)"/><g transform="translate(0,22)"/><g transform="translate(0,22)"/><g transform="translate(0,22)"/><g transform="translate(0,22)"/><g transform="translate(0,22)"/><g transform="translate(0,22)"/><g transform="translate(0,22)"/><g transform="translate(0,22)"/><g transform="translate(0,22)"/><g transform="translate(0,22)"/><g transform="translate(0,22)"/><g transform="translate(0,22)"/><g transform="translate(0,22)"/><g transform="translate(0,22)"/><g transform="translate(0,22)"/><g transform="translate(0,22)"/><g transform="translate(0,22)"/><g transform="translate(0,22)"/><g transform="translate(0,22)"/><g transform="translate(0,22)"/><g transform="translate(0,22)"/><g transform="translate(0,22)"/><g transform="translate(0,22)"/><g transform="translate(0,22)"/><g transform="translate(0,22)"/><g transform="translate(0,22)"/><g transform="translate(0,22)"/><g transform="translate(0,22)"/><g transform="translate(0,22)"/><g transform="translate(0,22)"/><g transform="translate(0,22)"/><g transform="translate(0,22)"/><g transform="translate(0,22)"/><g transform="translate(0,22)"/><g transform="translate(0,22)"/><g transform="translate(0,22)"/><g transform="translate(0,22)"/><g transform="translate(0,22)"/><g transform="translate(0,22)"><text opacity="1" transform="translate(0,0) rotate(0)" style="text-anchor: middle; display: block; fill: rgb(84, 84, 84);">20%</text></g></g></g><g class="x-title" transform="translate(250.04374980926514,23.75)"><text text-anchor="middle" dy="20" style="font-size: 14px; font-family: IbarraRealNova-SemiBold; fill: rgb(84, 84, 84);">Rate of population change</text></g></g></g><g class="axis-y-line" transform="translate(51.91250038146973,0)"><g><g class="axis-group" fill="none" font-size="10" font-family="sans-serif" text-anchor="end"><path class="domain" stroke="#000" d="M0.5,330.84999961853026H0.5V0.5H0.5" style="stroke: rgb(51, 51, 51); stroke-width: 1; display: block;"/><g class="tick" opacity="1" transform="translate(0, 330.8500061035156)"><line stroke="#000" x2="-5" style="stroke: rgb(51, 51, 51); stroke-width: 1; display: block;"/><text dx="-8" dy="5.6000000000000005" style="font-size: 14px; font-family: IbarraRealNova-SemiBold; fill: rgb(84, 84, 84); display: block;">0</text></g><g class="tick" opacity="1" transform="translate(0, 281.7064514160156)"><line stroke="#000" x2="-5" style="stroke: rgb(51, 51, 51); stroke-width: 1; display: block;"/><text dx="-8" dy="5.6000000000000005" style="font-size: 14px; font-family: IbarraRealNova-SemiBold; fill: rgb(84, 84, 84); display: block;">20</text></g><g class="tick" opacity="1" transform="translate(0, 232.5629119873047)"><line stroke="#000" x2="-5" style="stroke: rgb(51, 51, 51); stroke-width: 1; display: block;"/><text dx="-8" dy="5.6000000000000005" style="font-size: 14px; font-family: IbarraRealNova-SemiBold; fill: rgb(84, 84, 84); display: block;">40</text></g><g class="tick" opacity="1" transform="translate(0, 183.4193572998047)"><line stroke="#000" x2="-5" style="stroke: rgb(51, 51, 51); stroke-width: 1; display: block;"/><text dx="-8" dy="5.6000000000000005" style="font-size: 14px; font-family: IbarraRealNova-SemiBold; fill: rgb(84, 84, 84); display: block;">60</text></g><g class="tick" opacity="1" transform="translate(0, 134.27581787109375)"><line stroke="#000" x2="-5" style="stroke: rgb(51, 51, 51); stroke-width: 1; display: block;"/><text dx="-8" dy="5.6000000000000005" style="font-size: 14px; font-family: IbarraRealNova-SemiBold; fill: rgb(84, 84, 84); display: block;">80</text></g><g class="tick" opacity="1" transform="translate(0, 85.13226318359375)"><line stroke="#000" x2="-5" style="stroke: rgb(51, 51, 51); stroke-width: 1; display: block;"/><text dx="-8" dy="5.6000000000000005" style="font-size: 14px; font-family: IbarraRealNova-SemiBold; fill: rgb(84, 84, 84); display: block;">100</text></g><g class="tick" opacity="1" transform="translate(0, 35.98871612548828)"><line stroke="#000" x2="-5" style="stroke: rgb(51, 51, 51); stroke-width: 1; display: block;"/><text dx="-8" dy="5.6000000000000005" style="font-size: 14px; font-family: IbarraRealNova-SemiBold; fill: rgb(84, 84, 84); display: block;">120</text></g></g><g class="y-title" transform="translate(-33.16250038146973,165.17499980926513)"><text y="-9" transform="rotate(-90)" style="font-size: 14px; font-family: IbarraRealNova-SemiBold; fill: rgb(84, 84, 84); text-anchor: middle;">Water withdrawal</text></g></g></g><defs class="animation-defs"><clipPath id="animation-overlay-3p4liu1fsddavoi"><rect width="498.0874996185303" y="-2" x="0" height="472"/></clipPath></defs></g><text dy="1em" class="title-text" style="fill: rgb(76, 76, 76); font-size: 36px; font-family: &quot;阿里巴巴普惠体 常规&quot;; font-weight: bold; text-anchor: start; letter-spacing: 0px; display: block;" transform="translate(0,0)"><tspan x="0" y="0"/></text><g class="unit-group" style="display: block;" transform="translate(0,-1.4000000000000001)"><text dy="1em" style="fill: rgb(51, 51, 51); font-size: 14px; font-family: IbarraRealNova-SemiBold; font-weight: normal; text-anchor: start;">Units: G c.f.</text></g><g class="source-group" style="display: none;" transform="translate(0,427.7)"><text dy="1em" style="fill: rgb(135, 135, 135); font-size: 14px; font-family: &quot;阿里巴巴普惠体 常规&quot;; font-weight: normal; text-anchor: start;">数据来源：示例数据</text></g><g class="legend" style="display: block;" transform="translate(0,415.47499961853026)"><g transform="translate(177.0040283203125,0)"><g class="legend-group"><g class="legend-item" transform="translate(0,0)" style="opacity: 1;"><circle cx="6" cy="6" r="6" class="legend-shape" style="fill: rgb(21, 42, 209);"/><text x="18" y="6" dy="0.35em" style="text-anchor: start; font-size: 14px; font-family: IbarraRealNova-SemiBold; fill: rgb(84, 84, 84);">Lake Mead</text></g><g class="legend-item" transform="translate(106.30000305175781,0)" style="opacity: 1;"><circle cx="6" cy="6" r="6" class="legend-shape" style="fill: rgb(109, 154, 231);"/><text x="18" y="6" dy="0.35em" style="text-anchor: start; font-size: 14px; font-family: IbarraRealNova-SemiBold; fill: rgb(84, 84, 84);">Lake Powell</text></g></g></g></g></g></svg>