<?xml version="1.0" standalone="no"?>
<svg xmlns="http://www.w3.org/2000/svg" xmlns:xlink="http://www.w3.org/1999/xlink" version="1.1" class="stacked-chart" width="600" height="470" style="background-color: transparent; font-size: 14px; font-family: IbarraRealNova-SemiBold; letter-spacing: 0px; user-select: none;" totalHeight="0"><defs><clipPath id="ftmgvi1fsddavov"><rect x="-20" y="0" width="640" height="470"/></clipPath><clipPath id="diftln1fsddavov"><rect class="xdiftln1fsddavov"/></clipPath><filter x="-10%" y="-10%" width="180%" height="180%" id="Drop_Shadow_stacklinear" filterUnits="objectBoundingBox"><feGaussianBlur in="SourceAlpha" stdDeviation="0" result="blurredAlpha"/><feOffset in="blurredAlpha" dx="0.5" dy="0.7" result="offsetBlurredAlpha"/><feFlood result="flooded" style="flood-color: rgb(255, 255, 255); flood-opacity: 0.5;"/><feComposite in="flooded" in2="offsetBlurredAlpha" operator="in" result="coloredShadow"/><feComposite in="SourceGraphic" in2="coloredShadow" operator="over"/></filter></defs><g class="svg-group" opacity="1" transform="translate(24,20)"><g class="main-group" transform="translate(0,30.75)"><g class="core-group" transform="translate(33.66250038146973,0)" clip-path=""><g class="plane-grid"><g class="" style="fill: none; stroke: rgb(233, 233, 233); stroke-width: 1; stroke-dasharray: 4, 4; pointer-events: none;"><line class="grid-x-line" x1="0" y1="293.4109742690986" x2="518.8374996185303" y2="293.4109742690986"/><line class="grid-x-line" x1="0" y1="242.22194891966683" x2="518.8374996185303" y2="242.22194891966683"/><line class="grid-x-line" x1="0" y1="191.03292357023514" x2="518.8374996185303" y2="191.03292357023514"/><line class="grid-x-line" x1="0" y1="139.84389822080342" x2="518.8374996185303" y2="139.84389822080342"/><line class="grid-x-line" x1="0" y1="88.65487287137171" x2="518.8374996185303" y2="88.65487287137171"/><line class="grid-x-line" x1="0" y1="37.46584752194002" x2="518.8374996185303" y2="37.46584752194002"/></g></g><g class="area-plot" clip-path=""><g><path d="M14.022635124825172,193.88170960859495C14.022635124825172,193.88170960859495,60.76475220757564,207.9486244047033,84.13581074895087,205.44684610579208C107.50686929032611,202.94506780688084,130.87792783170133,177.01855164525278,154.24898637307658,178.8710398151276C177.62004491445182,180.72352798500242,200.99110345582704,191.7922589088734,224.3621619972023,216.56177512504092C247.73322053857754,241.33129134120844,271.10427907995273,306.24456361955515,294.475337621328,327.4881371121327C317.84639616270323,348.7317106047102,341.2174547040784,344.46583051969424,364.58851324545367,344.02321608050613C387.9595717868289,343.580601641318,411.33063032820417,328.1688231767167,434.7016888695794,324.83245047700416C458.07274741095466,321.4960777772916,504.8148644937051,324.0049798822306,504.8148644937051,324.0049798822306L504.8148644937051,344.09999961853026C504.8148644937051,344.09999961853026,458.07274741095466,344.09999961853026,434.7016888695794,344.09999961853026C411.33063032820417,344.09999961853026,387.9595717868289,344.09999961853026,364.58851324545367,344.09999961853026C341.2174547040784,344.09999961853026,317.84639616270323,344.09999961853026,294.475337621328,344.09999961853026C271.10427907995273,344.09999961853026,247.73322053857754,344.09999961853026,224.3621619972023,344.09999961853026C200.99110345582704,344.09999961853026,177.62004491445182,344.09999961853026,154.24898637307658,344.09999961853026C130.87792783170133,344.09999961853026,107.50686929032611,344.09999961853026,84.13581074895087,344.09999961853026C60.76475220757564,344.09999961853026,14.022635124825172,344.09999961853026,14.022635124825172,344.09999961853026Z" style="fill: rgb(21, 42, 209); fill-opacity: 0.7;"/><path d="M14.022635124825172,64.0681329383234C14.022635124825172,64.0681329383234,60.76475220757564,82.3382212633947,84.13581074895087,76.87383546486399C107.50686929032611,71.40944966633327,130.87792783170133,28.338619819631305,154.24898637307658,31.28181814713912C177.62004491445182,34.225016474646935,200.99110345582704,45.666360845540645,224.3621619972023,94.53302542991088C247.73322053857754,143.3996900142811,271.10427907995273,286.3127089015568,294.475337621328,324.48180565336054C317.84639616270323,362.6509024051643,341.2174547040784,323.8590058449425,364.58851324545367,323.54760594073343C387.9595717868289,323.2362060365244,411.33063032820417,322.9248061323154,434.7016888695794,322.6134062281063C458.07274741095466,322.3020063238973,504.8148644937051,321.67920651547917,504.8148644937051,321.67920651547917L504.8148644937051,324.0049798822306C504.8148644937051,324.0049798822306,458.07274741095466,321.4960777772916,434.7016888695794,324.83245047700416C411.33063032820417,328.1688231767167,387.9595717868289,343.580601641318,364.58851324545367,344.02321608050613C341.2174547040784,344.46583051969424,317.84639616270323,348.7317106047102,294.475337621328,327.4881371121327C271.10427907995273,306.24456361955515,247.73322053857754,241.3312913412084,224.3621619972023,216.5617751250409C200.99110345582704,191.79225890887338,177.62004491445182,180.72352798500242,154.24898637307658,178.8710398151276C130.87792783170133,177.01855164525278,107.50686929032611,202.94506780688084,84.13581074895087,205.44684610579208C60.76475220757564,207.9486244047033,14.022635124825172,193.88170960859495,14.022635124825172,193.88170960859495Z" style="fill: rgb(109, 154, 231); fill-opacity: 0.7;"/></g></g><g class="stack-area-line-plot" clip-path=""><g><path d="M14.022635124825172,193.88170960859495C14.022635124825172,193.88170960859495,60.76475220757564,207.9486244047033,84.13581074895087,205.44684610579208C107.50686929032611,202.94506780688084,130.87792783170133,177.01855164525278,154.24898637307658,178.8710398151276C177.62004491445182,180.72352798500242,200.99110345582704,191.7922589088734,224.3621619972023,216.56177512504092C247.73322053857754,241.33129134120844,271.10427907995273,306.24456361955515,294.475337621328,327.4881371121327C317.84639616270323,348.7317106047102,341.2174547040784,344.46583051969424,364.58851324545367,344.02321608050613C387.9595717868289,343.580601641318,411.33063032820417,328.1688231767167,434.7016888695794,324.83245047700416C458.07274741095466,321.4960777772916,504.8148644937051,324.0049798822306,504.8148644937051,324.0049798822306" style="fill: none; stroke: rgb(21, 42, 209); stroke-width: 2;"/><path d="M14.022635124825172,64.0681329383234C14.022635124825172,64.0681329383234,60.76475220757564,82.3382212633947,84.13581074895087,76.87383546486399C107.50686929032611,71.40944966633327,130.87792783170133,28.338619819631305,154.24898637307658,31.28181814713912C177.62004491445182,34.225016474646935,200.99110345582704,45.666360845540645,224.3621619972023,94.53302542991088C247.73322053857754,143.3996900142811,271.10427907995273,286.3127089015568,294.475337621328,324.48180565336054C317.84639616270323,362.6509024051643,341.2174547040784,323.8590058449425,364.58851324545367,323.54760594073343C387.9595717868289,323.2362060365244,411.33063032820417,322.9248061323154,434.7016888695794,322.6134062281063C458.07274741095466,322.3020063238973,504.8148644937051,321.67920651547917,504.8148644937051,321.67920651547917" style="fill: none; stroke: rgb(109, 154, 231); stroke-width: 2;"/><g><g><circle class="clip-scatter-plot" cx="14.022635124825172" cy="193.88170960859495" r="0" style="fill: rgb(255, 255, 255); stroke: rgb(21, 42, 209); stroke-width: 2; visibility: visible;"/><circle class="clip-scatter-plot" cx="84.13581074895087" cy="205.44684610579208" r="0" style="fill: rgb(255, 255, 255); stroke: rgb(21, 42, 209); stroke-width: 2; visibility: visible;"/><circle class="clip-scatter-plot" cx="154.24898637307658" cy="178.8710398151276" r="0" style="fill: rgb(255, 255, 255); stroke: rgb(21, 42, 209); stroke-width: 2; visibility: visible;"/><circle class="clip-scatter-plot" cx="224.3621619972023" cy="216.56177512504092" r="0" style="fill: rgb(255, 255, 255); stroke: rgb(21, 42, 209); stroke-width: 2; visibility: visible;"/><circle class="clip-scatter-plot" cx="294.475337621328" cy="327.4881371121327" r="0" style="fill: rgb(255, 255, 255); stroke: rgb(21, 42, 209); stroke-width: 2; visibility: visible;"/><circle class="clip-scatter-plot" cx="364.58851324545367" cy="344.02321608050613" r="0" style="fill: rgb(255, 255, 255); stroke: rgb(21, 42, 209); stroke-width: 2; visibility: visible;"/><circle class="clip-scatter-plot" cx="434.7016888695794" cy="324.83245047700416" r="0" style="fill: rgb(255, 255, 255); stroke: rgb(21, 42, 209); stroke-width: 2; visibility: visible;"/><circle class="clip-scatter-plot" cx="504.8148644937051" cy="324.0049798822306" r="0" style="fill: rgb(255, 255, 255); stroke: rgb(21, 42, 209); stroke-width: 2; visibility: visible;"/></g><g><circle class="clip-scatter-plot" cx="14.022635124825172" cy="64.0681329383234" r="0" style="fill: rgb(255, 255, 255); stroke: rgb(109, 154, 231); stroke-width: 2; visibility: visible;"/><circle class="clip-scatter-plot" cx="84.13581074895087" cy="76.87383546486399" r="0" style="fill: rgb(255, 255, 255); stroke: rgb(109, 154, 231); stroke-width: 2; visibility: visible;"/><circle class="clip-scatter-plot" cx="154.24898637307658" cy="31.28181814713912" r="0" style="fill: rgb(255, 255, 255); stroke: rgb(109, 154, 231); stroke-width: 2; visibility: visible;"/><circle class="clip-scatter-plot" cx="224.3621619972023" cy="94.53302542991088" r="0" style="fill: rgb(255, 255, 255); stroke: rgb(109, 154, 231); stroke-width: 2; visibility: visible;"/><circle class="clip-scatter-plot" cx="294.475337621328" cy="324.48180565336054" r="0" style="fill: rgb(255, 255, 255); stroke: rgb(109, 154, 231); stroke-width: 2; visibility: visible;"/><circle class="clip-scatter-plot" cx="364.58851324545367" cy="323.54760594073343" r="0" style="fill: rgb(255, 255, 255); stroke: rgb(109, 154, 231); stroke-width: 2; visibility: visible;"/><circle class="clip-scatter-plot" cx="434.7016888695794" cy="322.6134062281063" r="0" style="fill: rgb(255, 255, 255); stroke: rgb(109, 154, 231); stroke-width: 2; visibility: visible;"/><circle class="clip-scatter-plot" cx="504.8148644937051" cy="321.67920651547917" r="0" style="fill: rgb(255, 255, 255); stroke: rgb(109, 154, 231); stroke-width: 2; visibility: visible;"/></g></g></g></g><g class="bands-overlay" style="opacity: 0;"><rect class="band-0" x="-35.05658781206285" y="0" width="70.1131756241257" height="344.09999961853026" style="fill: rgb(0, 0, 0);"/><rect class="band-1" x="35.05658781206285" y="0" width="70.1131756241257" height="344.09999961853026" style="fill: rgb(0, 0, 0);"/><rect class="band-2" x="105.16976343618856" y="0" width="70.1131756241257" height="344.09999961853026" style="fill: rgb(0, 0, 0);"/><rect class="band-3" x="175.28293906031428" y="0" width="70.1131756241257" height="344.09999961853026" style="fill: rgb(0, 0, 0);"/><rect class="band-4" x="245.39611468443997" y="0" width="70.1131756241257" height="344.09999961853026" style="fill: rgb(0, 0, 0);"/><rect class="band-5" x="315.50929030856565" y="0" width="70.1131756241257" height="344.09999961853026" style="fill: rgb(0, 0, 0);"/><rect class="band-6" x="385.6224659326914" y="0" width="70.1131756241257" height="344.09999961853026" style="fill: rgb(0, 0, 0);"/><rect class="band-7" x="455.7356415568171" y="0" width="70.1131756241257" height="344.09999961853026" style="fill: rgb(0, 0, 0);"/></g><line class="guide-line" x1="0" y1="0" x2="0" y2="344.09999961853026" style="stroke: rgb(198, 198, 198); stroke-dasharray: none; pointer-events: none; display: none;" transform="translate(364.5885009765625, 0)"/><g class="scatter-plot" style="pointer-events: none; display: none;"><g><g><circle class="stacked-scatter-circle" cx="364.58851324545367" cy="344.02321608050613" r="0" style="fill: rgb(21, 42, 209); stroke: rgb(255, 255, 255); stroke-width: 2; opacity: 1;"/></g><g><circle class="stacked-scatter-circle" cx="364.58851324545367" cy="323.54760594073343" r="0" style="fill: rgb(109, 154, 231); stroke: rgb(255, 255, 255); stroke-width: 2; opacity: 1;"/></g></g></g><g class="area-stack-texts"><g><g class="area-stack-text-group"><text x="14.022635124825172" y="193.88170960859495" text-anchor="middle" dy="-5.6000000000000005" style="fill: rgb(84, 84, 84); font-size: 14px; font-family: &quot;阿里巴巴普惠体 常规&quot;; display: none; opacity: 1; visibility: hidden;">58.6916</text><text x="84.13581074895087" y="205.44684610579208" text-anchor="middle" dy="-5.6000000000000005" style="fill: rgb(84, 84, 84); font-size: 14px; font-family: &quot;阿里巴巴普惠体 常规&quot;; display: none; opacity: 1; visibility: hidden;">54.173</text><text x="154.24898637307658" y="178.8710398151276" text-anchor="middle" dy="-5.6000000000000005" style="fill: rgb(84, 84, 84); font-size: 14px; font-family: &quot;阿里巴巴普惠体 常规&quot;; display: none; opacity: 1; visibility: hidden;">64.5564</text><text x="224.3621619972023" y="216.56177512504092" text-anchor="middle" dy="-5.6000000000000005" style="fill: rgb(84, 84, 84); font-size: 14px; font-family: &quot;阿里巴巴普惠体 常规&quot;; display: none; opacity: 1; visibility: hidden;">49.8303</text><text x="294.475337621328" y="327.4881371121327" text-anchor="middle" dy="-5.6000000000000005" style="fill: rgb(84, 84, 84); font-size: 14px; font-family: &quot;阿里巴巴普惠体 常规&quot;; display: none; opacity: 1; visibility: hidden;">6.4904</text><text x="364.58851324545367" y="344.02321608050613" text-anchor="middle" dy="-5.6000000000000005" style="fill: rgb(84, 84, 84); font-size: 14px; font-family: &quot;阿里巴巴普惠体 常规&quot;; display: none; opacity: 1; visibility: hidden;">0.03</text><text x="434.7016888695794" y="324.83245047700416" text-anchor="middle" dy="-5.6000000000000005" style="fill: rgb(84, 84, 84); font-size: 14px; font-family: &quot;阿里巴巴普惠体 常规&quot;; display: none; opacity: 1; visibility: hidden;">7.528</text><text x="504.8148644937051" y="324.0049798822306" text-anchor="middle" dy="-5.6000000000000005" style="fill: rgb(84, 84, 84); font-size: 14px; font-family: &quot;阿里巴巴普惠体 常规&quot;; display: none; opacity: 1; visibility: hidden;">7.8513</text></g><g class="area-stack-text-group"><text x="14.022635124825172" y="64.0681329383234" text-anchor="middle" dy="-5.6000000000000005" style="fill: rgb(84, 84, 84); font-size: 14px; font-family: &quot;阿里巴巴普惠体 常规&quot;; display: none; opacity: 1; visibility: hidden;">50.7193</text><text x="84.13581074895087" y="76.87383546486399" text-anchor="middle" dy="-5.6000000000000005" style="fill: rgb(84, 84, 84); font-size: 14px; font-family: &quot;阿里巴巴普惠体 常规&quot;; display: none; opacity: 1; visibility: hidden;">50.2346</text><text x="154.24898637307658" y="31.28181814713912" text-anchor="middle" dy="-5.6000000000000005" style="fill: rgb(84, 84, 84); font-size: 14px; font-family: &quot;阿里巴巴普惠体 常规&quot;; display: none; opacity: 1; visibility: hidden;">57.6644</text><text x="224.3621619972023" y="94.53302542991088" text-anchor="middle" dy="-5.6000000000000005" style="fill: rgb(84, 84, 84); font-size: 14px; font-family: &quot;阿里巴巴普惠体 常规&quot;; display: none; opacity: 1; visibility: hidden;">47.6777</text><text x="294.475337621328" y="324.48180565336054" text-anchor="middle" dy="-5.6000000000000005" style="fill: rgb(84, 84, 84); font-size: 14px; font-family: &quot;阿里巴巴普惠体 常规&quot;; display: none; opacity: 1; visibility: hidden;">1.1746</text><text x="364.58851324545367" y="323.54760594073343" text-anchor="middle" dy="-5.6000000000000005" style="fill: rgb(84, 84, 84); font-size: 14px; font-family: &quot;阿里巴巴普惠体 常规&quot;; display: none; opacity: 1; visibility: hidden;">8</text><text x="434.7016888695794" y="322.6134062281063" text-anchor="middle" dy="-5.6000000000000005" style="fill: rgb(84, 84, 84); font-size: 14px; font-family: &quot;阿里巴巴普惠体 常规&quot;; display: none; opacity: 1; visibility: hidden;">0.867</text><text x="504.8148644937051" y="321.67920651547917" text-anchor="middle" dy="-5.6000000000000005" style="fill: rgb(84, 84, 84); font-size: 14px; font-family: &quot;阿里巴巴普惠体 常规&quot;; display: none; opacity: 1; visibility: visible;">0.9087</text></g></g></g></g><g class="axis-x-line" transform="translate(33.16250038146973,344.09999961853026)"><g><g class="axis-group" fill="none" font-size="10" font-family="sans-serif" text-anchor="middle" style="font-size: 14px; font-family: IbarraRealNova-SemiBold;"><path class="domain" stroke="#000" d="M0.5,0.5V0.5H519.3374996185303V0.5" style="stroke: rgb(51, 51, 51); stroke-width: 1; display: block;"/><g class="tick" opacity="1" transform="translate(14.522635459899902, 0)"><line stroke="#000" y2="5" style="stroke: rgb(51, 51, 51); stroke-width: 1; display: block;"/><g transform="translate(0,22)"/><g transform="translate(0,22)"/><g transform="translate(0,22)"/><g transform="translate(0,22)"/><g transform="translate(0,22)"/><g transform="translate(0,22)"/><g transform="translate(0,22)"/><g transform="translate(0,22)"/><g transform="translate(0,22)"/><g transform="translate(0,22)"/><g transform="translate(0,22)"/><g transform="translate(0,22)"/><g transform="translate(0,22)"/><g transform="translate(0,22)"/><g transform="translate(0,22)"/><g transform="translate(0,22)"/><g transform="translate(0,22)"/><g transform="translate(0,22)"/><g transform="translate(0,22)"/><g transform="translate(0,22)"/><g transform="translate(0,22)"/><g transform="translate(0,22)"/><g transform="translate(0,22)"/><g transform="translate(0,22)"/><g transform="translate(0,22)"/><g transform="translate(0,22)"/><g transform="translate(0,22)"/><g transform="translate(0,22)"/><g transform="translate(0,22)"/><g transform="translate(0,22)"/><g transform="translate(0,22)"/><g transform="translate(0,22)"/><g transform="translate(0,22)"/><g transform="translate(0,22)"/><g transform="translate(0,22)"/><g transform="translate(0,22)"/><g transform="translate(0,22)"/><g transform="translate(0,22)"/><g transform="translate(0,22)"/><g transform="translate(0,22)"/><g transform="translate(0,22)"/><g transform="translate(0,22)"/><g transform="translate(0,22)"/><g transform="translate(0,22)"/><g transform="translate(0,22)"/><g transform="translate(0,22)"/><g transform="translate(0,22)"/><g transform="translate(0,22)"/><g transform="translate(0,22)"/><g transform="translate(0,22)"/><g transform="translate(0,22)"/><g transform="translate(0,22)"/><g transform="translate(0,22)"/><g transform="translate(0,22)"/><g transform="translate(0,22)"/><g transform="translate(0,22)"/><g transform="translate(0,22)"/><g transform="translate(0,22)"/><g transform="translate(0,22)"/><g transform="translate(0,22)"/><g transform="translate(0,22)"/><g transform="translate(0,22)"/><g transform="translate(0,22)"/><g transform="translate(0,22)"/><g transform="translate(0,22)"/><g transform="translate(0,22)"/><g transform="translate(0,22)"/><g transform="translate(0,22)"/><g transform="translate(0,22)"/><g transform="translate(0,22)"/><g transform="translate(0,22)"/><g transform="translate(0,22)"/><g transform="translate(0,22)"/><g transform="translate(0,22)"/><g transform="translate(0,22)"/><g transform="translate(0,22)"/><g transform="translate(0,22)"/><g transform="translate(0,22)"/><g transform="translate(0,22)"/><g transform="translate(0,22)"/><g transform="translate(0,22)"/><g transform="translate(0,22)"/><g transform="translate(0,22)"/><g transform="translate(0,22)"/><g transform="translate(0,22)"/><g transform="translate(0,22)"/><g transform="translate(0,22)"/><g transform="translate(0,22)"/><g transform="translate(0,22)"/><g transform="translate(0,22)"/><g transform="translate(0,22)"/><g transform="translate(0,22)"/><g transform="translate(0,22)"/><g transform="translate(0,22)"/><g transform="translate(0,22)"/><g transform="translate(0,22)"/><g transform="translate(0,22)"/><g transform="translate(0,22)"/><g transform="translate(0,22)"/><g transform="translate(0,22)"/><g transform="translate(0,22)"/><g transform="translate(0,22)"/><g transform="translate(0,22)"/><g transform="translate(0,22)"/><g transform="translate(0,22)"/><g transform="translate(0,22)"/><g transform="translate(0,22)"/><g transform="translate(0,22)"/><g transform="translate(0,22)"/><g transform="translate(0,22)"/><g transform="translate(0,22)"/><g transform="translate(0,22)"/><g transform="translate(0,22)"/><g transform="translate(0,22)"/><g transform="translate(0,22)"/><g transform="translate(0,22)"/><g transform="translate(0,22)"/><g transform="translate(0,22)"/><g transform="translate(0,22)"/><g transform="translate(0,22)"/><g transform="translate(0,22)"/><g transform="translate(0,22)"/><g transform="translate(0,22)"/><g transform="translate(0,22)"/><g transform="translate(0,22)"/><g transform="translate(0,22)"/><g transform="translate(0,22)"/><g transform="translate(0,22)"/><g transform="translate(0,22)"/><g transform="translate(0,22)"/><g transform="translate(0,22)"/><g transform="translate(0,22)"/><g transform="translate(0,22)"/><g transform="translate(0,22)"/><g transform="translate(0,22)"/><g transform="translate(0,22)"/><g transform="translate(0,22)"/><g transform="translate(0,22)"/><g transform="translate(0,22)"/><g transform="translate(0,22)"/><g transform="translate(0,22)"/><g transform="translate(0,22)"><text opacity="1" transform="translate(0,0) rotate(0)" style="text-anchor: middle; display: block; fill: rgb(84, 84, 84);">-15%</text></g></g><g class="tick" opacity="1" transform="translate(84.63581085205078, 0)"><line stroke="#000" y2="5" style="stroke: rgb(51, 51, 51); stroke-width: 1; display: block;"/><g transform="translate(0,22)"/><g transform="translate(0,22)"/><g transform="translate(0,22)"/><g transform="translate(0,22)"/><g transform="translate(0,22)"/><g transform="translate(0,22)"/><g transform="translate(0,22)"/><g transform="translate(0,22)"/><g transform="translate(0,22)"/><g transform="translate(0,22)"/><g transform="translate(0,22)"/><g transform="translate(0,22)"/><g transform="translate(0,22)"/><g transform="translate(0,22)"/><g transform="translate(0,22)"/><g transform="translate(0,22)"/><g transform="translate(0,22)"/><g transform="translate(0,22)"/><g transform="translate(0,22)"/><g transform="translate(0,22)"/><g transform="translate(0,22)"/><g transform="translate(0,22)"/><g transform="translate(0,22)"/><g transform="translate(0,22)"/><g transform="translate(0,22)"/><g transform="translate(0,22)"/><g transform="translate(0,22)"/><g transform="translate(0,22)"/><g transform="translate(0,22)"/><g transform="translate(0,22)"/><g transform="translate(0,22)"/><g transform="translate(0,22)"/><g transform="translate(0,22)"/><g transform="translate(0,22)"/><g transform="translate(0,22)"/><g transform="translate(0,22)"/><g transform="translate(0,22)"/><g transform="translate(0,22)"/><g transform="translate(0,22)"/><g transform="translate(0,22)"/><g transform="translate(0,22)"/><g transform="translate(0,22)"/><g transform="translate(0,22)"/><g transform="translate(0,22)"/><g transform="translate(0,22)"/><g transform="translate(0,22)"/><g transform="translate(0,22)"/><g transform="translate(0,22)"/><g transform="translate(0,22)"/><g transform="translate(0,22)"/><g transform="translate(0,22)"/><g transform="translate(0,22)"/><g transform="translate(0,22)"/><g transform="translate(0,22)"/><g transform="translate(0,22)"/><g transform="translate(0,22)"/><g transform="translate(0,22)"/><g transform="translate(0,22)"/><g transform="translate(0,22)"/><g transform="translate(0,22)"/><g transform="translate(0,22)"/><g transform="translate(0,22)"/><g transform="translate(0,22)"/><g transform="translate(0,22)"/><g transform="translate(0,22)"/><g transform="translate(0,22)"/><g transform="translate(0,22)"/><g transform="translate(0,22)"/><g transform="translate(0,22)"/><g transform="translate(0,22)"/><g transform="translate(0,22)"/><g transform="translate(0,22)"/><g transform="translate(0,22)"/><g transform="translate(0,22)"/><g transform="translate(0,22)"/><g transform="translate(0,22)"/><g transform="translate(0,22)"/><g transform="translate(0,22)"/><g transform="translate(0,22)"/><g transform="translate(0,22)"/><g transform="translate(0,22)"/><g transform="translate(0,22)"/><g transform="translate(0,22)"/><g transform="translate(0,22)"/><g transform="translate(0,22)"/><g transform="translate(0,22)"/><g transform="translate(0,22)"/><g transform="translate(0,22)"/><g transform="translate(0,22)"/><g transform="translate(0,22)"/><g transform="translate(0,22)"/><g transform="translate(0,22)"/><g transform="translate(0,22)"/><g transform="translate(0,22)"/><g transform="translate(0,22)"/><g transform="translate(0,22)"/><g transform="translate(0,22)"/><g transform="translate(0,22)"/><g transform="translate(0,22)"/><g transform="translate(0,22)"/><g transform="translate(0,22)"/><g transform="translate(0,22)"/><g transform="translate(0,22)"/><g transform="translate(0,22)"/><g transform="translate(0,22)"/><g transform="translate(0,22)"/><g transform="translate(0,22)"/><g transform="translate(0,22)"/><g transform="translate(0,22)"/><g transform="translate(0,22)"/><g transform="translate(0,22)"/><g transform="translate(0,22)"/><g transform="translate(0,22)"/><g transform="translate(0,22)"/><g transform="translate(0,22)"/><g transform="translate(0,22)"/><g transform="translate(0,22)"/><g transform="translate(0,22)"/><g transform="translate(0,22)"/><g transform="translate(0,22)"/><g transform="translate(0,22)"/><g transform="translate(0,22)"/><g transform="translate(0,22)"/><g transform="translate(0,22)"/><g transform="translate(0,22)"/><g transform="translate(0,22)"/><g transform="translate(0,22)"/><g transform="translate(0,22)"/><g transform="translate(0,22)"/><g transform="translate(0,22)"/><g transform="translate(0,22)"/><g transform="translate(0,22)"/><g transform="translate(0,22)"/><g transform="translate(0,22)"/><g transform="translate(0,22)"/><g transform="translate(0,22)"/><g transform="translate(0,22)"/><g transform="translate(0,22)"/><g transform="translate(0,22)"/><g transform="translate(0,22)"><text opacity="1" transform="translate(0,0) rotate(0)" style="text-anchor: middle; display: block; fill: rgb(84, 84, 84);">-10%</text></g></g><g class="tick" opacity="1" transform="translate(154.74899291992188, 0)"><line stroke="#000" y2="5" style="stroke: rgb(51, 51, 51); stroke-width: 1; display: block;"/><g transform="translate(0,22)"/><g transform="translate(0,22)"/><g transform="translate(0,22)"/><g transform="translate(0,22)"/><g transform="translate(0,22)"/><g transform="translate(0,22)"/><g transform="translate(0,22)"/><g transform="translate(0,22)"/><g transform="translate(0,22)"/><g transform="translate(0,22)"/><g transform="translate(0,22)"/><g transform="translate(0,22)"/><g transform="translate(0,22)"/><g transform="translate(0,22)"/><g transform="translate(0,22)"/><g transform="translate(0,22)"/><g transform="translate(0,22)"/><g transform="translate(0,22)"/><g transform="translate(0,22)"/><g transform="translate(0,22)"/><g transform="translate(0,22)"/><g transform="translate(0,22)"/><g transform="translate(0,22)"/><g transform="translate(0,22)"/><g transform="translate(0,22)"/><g transform="translate(0,22)"/><g transform="translate(0,22)"/><g transform="translate(0,22)"/><g transform="translate(0,22)"/><g transform="translate(0,22)"/><g transform="translate(0,22)"/><g transform="translate(0,22)"/><g transform="translate(0,22)"/><g transform="translate(0,22)"/><g transform="translate(0,22)"/><g transform="translate(0,22)"/><g transform="translate(0,22)"/><g transform="translate(0,22)"/><g transform="translate(0,22)"/><g transform="translate(0,22)"/><g transform="translate(0,22)"/><g transform="translate(0,22)"/><g transform="translate(0,22)"/><g transform="translate(0,22)"/><g transform="translate(0,22)"/><g transform="translate(0,22)"/><g transform="translate(0,22)"/><g transform="translate(0,22)"/><g transform="translate(0,22)"/><g transform="translate(0,22)"/><g transform="translate(0,22)"/><g transform="translate(0,22)"/><g transform="translate(0,22)"/><g transform="translate(0,22)"/><g transform="translate(0,22)"/><g transform="translate(0,22)"/><g transform="translate(0,22)"/><g transform="translate(0,22)"/><g transform="translate(0,22)"/><g transform="translate(0,22)"/><g transform="translate(0,22)"/><g transform="translate(0,22)"/><g transform="translate(0,22)"/><g transform="translate(0,22)"/><g transform="translate(0,22)"/><g transform="translate(0,22)"/><g transform="translate(0,22)"/><g transform="translate(0,22)"/><g transform="translate(0,22)"/><g transform="translate(0,22)"/><g transform="translate(0,22)"/><g transform="translate(0,22)"/><g transform="translate(0,22)"/><g transform="translate(0,22)"/><g transform="translate(0,22)"/><g transform="translate(0,22)"/><g transform="translate(0,22)"/><g transform="translate(0,22)"/><g transform="translate(0,22)"/><g transform="translate(0,22)"/><g transform="translate(0,22)"/><g transform="translate(0,22)"/><g transform="translate(0,22)"/><g transform="translate(0,22)"/><g transform="translate(0,22)"/><g transform="translate(0,22)"/><g transform="translate(0,22)"/><g transform="translate(0,22)"/><g transform="translate(0,22)"/><g transform="translate(0,22)"/><g transform="translate(0,22)"/><g transform="translate(0,22)"/><g transform="translate(0,22)"/><g transform="translate(0,22)"/><g transform="translate(0,22)"/><g transform="translate(0,22)"/><g transform="translate(0,22)"/><g transform="translate(0,22)"/><g transform="translate(0,22)"/><g transform="translate(0,22)"/><g transform="translate(0,22)"/><g transform="translate(0,22)"/><g transform="translate(0,22)"/><g transform="translate(0,22)"/><g transform="translate(0,22)"/><g transform="translate(0,22)"/><g transform="translate(0,22)"/><g transform="translate(0,22)"/><g transform="translate(0,22)"/><g transform="translate(0,22)"/><g transform="translate(0,22)"/><g transform="translate(0,22)"/><g transform="translate(0,22)"/><g transform="translate(0,22)"/><g transform="translate(0,22)"/><g transform="translate(0,22)"/><g transform="translate(0,22)"/><g transform="translate(0,22)"/><g transform="translate(0,22)"/><g transform="translate(0,22)"/><g transform="translate(0,22)"/><g transform="translate(0,22)"/><g transform="translate(0,22)"/><g transform="translate(0,22)"/><g transform="translate(0,22)"/><g transform="translate(0,22)"/><g transform="translate(0,22)"/><g transform="translate(0,22)"/><g transform="translate(0,22)"/><g transform="translate(0,22)"/><g transform="translate(0,22)"/><g transform="translate(0,22)"/><g transform="translate(0,22)"/><g transform="translate(0,22)"/><g transform="translate(0,22)"/><g transform="translate(0,22)"/><g transform="translate(0,22)"/><g transform="translate(0,22)"><text opacity="1" transform="translate(0,0) rotate(0)" style="text-anchor: middle; display: block; fill: rgb(84, 84, 84);">5%</text></g></g><g class="tick" opacity="1" transform="translate(224.86216735839844, 0)"><line stroke="#000" y2="5" style="stroke: rgb(51, 51, 51); stroke-width: 1; display: block;"/><g transform="translate(0,22)"/><g transform="translate(0,22)"/><g transform="translate(0,22)"/><g transform="translate(0,22)"/><g transform="translate(0,22)"/><g transform="translate(0,22)"/><g transform="translate(0,22)"/><g transform="translate(0,22)"/><g transform="translate(0,22)"/><g transform="translate(0,22)"/><g transform="translate(0,22)"/><g transform="translate(0,22)"/><g transform="translate(0,22)"/><g transform="translate(0,22)"/><g transform="translate(0,22)"/><g transform="translate(0,22)"/><g transform="translate(0,22)"/><g transform="translate(0,22)"/><g transform="translate(0,22)"/><g transform="translate(0,22)"/><g transform="translate(0,22)"/><g transform="translate(0,22)"/><g transform="translate(0,22)"/><g transform="translate(0,22)"/><g transform="translate(0,22)"/><g transform="translate(0,22)"/><g transform="translate(0,22)"/><g transform="translate(0,22)"/><g transform="translate(0,22)"/><g transform="translate(0,22)"/><g transform="translate(0,22)"/><g transform="translate(0,22)"/><g transform="translate(0,22)"/><g transform="translate(0,22)"/><g transform="translate(0,22)"/><g transform="translate(0,22)"/><g transform="translate(0,22)"/><g transform="translate(0,22)"/><g transform="translate(0,22)"/><g transform="translate(0,22)"/><g transform="translate(0,22)"/><g transform="translate(0,22)"/><g transform="translate(0,22)"/><g transform="translate(0,22)"/><g transform="translate(0,22)"/><g transform="translate(0,22)"/><g transform="translate(0,22)"/><g transform="translate(0,22)"/><g transform="translate(0,22)"/><g transform="translate(0,22)"/><g transform="translate(0,22)"/><g transform="translate(0,22)"/><g transform="translate(0,22)"/><g transform="translate(0,22)"/><g transform="translate(0,22)"/><g transform="translate(0,22)"/><g transform="translate(0,22)"/><g transform="translate(0,22)"/><g transform="translate(0,22)"/><g transform="translate(0,22)"/><g transform="translate(0,22)"/><g transform="translate(0,22)"/><g transform="translate(0,22)"/><g transform="translate(0,22)"/><g transform="translate(0,22)"/><g transform="translate(0,22)"/><g transform="translate(0,22)"/><g transform="translate(0,22)"/><g transform="translate(0,22)"/><g transform="translate(0,22)"/><g transform="translate(0,22)"/><g transform="translate(0,22)"/><g transform="translate(0,22)"/><g transform="translate(0,22)"/><g transform="translate(0,22)"/><g transform="translate(0,22)"/><g transform="translate(0,22)"/><g transform="translate(0,22)"/><g transform="translate(0,22)"/><g transform="translate(0,22)"/><g transform="translate(0,22)"/><g transform="translate(0,22)"/><g transform="translate(0,22)"/><g transform="translate(0,22)"/><g transform="translate(0,22)"/><g transform="translate(0,22)"/><g transform="translate(0,22)"/><g transform="translate(0,22)"/><g transform="translate(0,22)"/><g transform="translate(0,22)"/><g transform="translate(0,22)"/><g transform="translate(0,22)"/><g transform="translate(0,22)"/><g transform="translate(0,22)"/><g transform="translate(0,22)"/><g transform="translate(0,22)"/><g transform="translate(0,22)"/><g transform="translate(0,22)"/><g transform="translate(0,22)"/><g transform="translate(0,22)"/><g transform="translate(0,22)"/><g transform="translate(0,22)"/><g transform="translate(0,22)"/><g transform="translate(0,22)"/><g transform="translate(0,22)"/><g transform="translate(0,22)"/><g transform="translate(0,22)"/><g transform="translate(0,22)"/><g transform="translate(0,22)"/><g transform="translate(0,22)"/><g transform="translate(0,22)"/><g transform="translate(0,22)"/><g transform="translate(0,22)"/><g transform="translate(0,22)"/><g transform="translate(0,22)"/><g transform="translate(0,22)"/><g transform="translate(0,22)"/><g transform="translate(0,22)"/><g transform="translate(0,22)"/><g transform="translate(0,22)"/><g transform="translate(0,22)"/><g transform="translate(0,22)"/><g transform="translate(0,22)"/><g transform="translate(0,22)"/><g transform="translate(0,22)"/><g transform="translate(0,22)"/><g transform="translate(0,22)"/><g transform="translate(0,22)"/><g transform="translate(0,22)"/><g transform="translate(0,22)"/><g transform="translate(0,22)"/><g transform="translate(0,22)"/><g transform="translate(0,22)"/><g transform="translate(0,22)"/><g transform="translate(0,22)"/><g transform="translate(0,22)"><text opacity="1" transform="translate(0,0) rotate(0)" style="text-anchor: middle; display: block; fill: rgb(84, 84, 84);">0%</text></g></g><g class="tick" opacity="1" transform="translate(294.975341796875, 0)"><line stroke="#000" y2="5" style="stroke: rgb(51, 51, 51); stroke-width: 1; display: block;"/><g transform="translate(0,22)"/><g transform="translate(0,22)"/><g transform="translate(0,22)"/><g transform="translate(0,22)"/><g transform="translate(0,22)"/><g transform="translate(0,22)"/><g transform="translate(0,22)"/><g transform="translate(0,22)"/><g transform="translate(0,22)"/><g transform="translate(0,22)"/><g transform="translate(0,22)"/><g transform="translate(0,22)"/><g transform="translate(0,22)"/><g transform="translate(0,22)"/><g transform="translate(0,22)"/><g transform="translate(0,22)"/><g transform="translate(0,22)"/><g transform="translate(0,22)"/><g transform="translate(0,22)"/><g transform="translate(0,22)"/><g transform="translate(0,22)"/><g transform="translate(0,22)"/><g transform="translate(0,22)"/><g transform="translate(0,22)"/><g transform="translate(0,22)"/><g transform="translate(0,22)"/><g transform="translate(0,22)"/><g transform="translate(0,22)"/><g transform="translate(0,22)"/><g transform="translate(0,22)"/><g transform="translate(0,22)"/><g transform="translate(0,22)"/><g transform="translate(0,22)"/><g transform="translate(0,22)"/><g transform="translate(0,22)"/><g transform="translate(0,22)"/><g transform="translate(0,22)"/><g transform="translate(0,22)"/><g transform="translate(0,22)"/><g transform="translate(0,22)"/><g transform="translate(0,22)"/><g transform="translate(0,22)"/><g transform="translate(0,22)"/><g transform="translate(0,22)"/><g transform="translate(0,22)"/><g transform="translate(0,22)"/><g transform="translate(0,22)"/><g transform="translate(0,22)"/><g transform="translate(0,22)"/><g transform="translate(0,22)"/><g transform="translate(0,22)"/><g transform="translate(0,22)"/><g transform="translate(0,22)"/><g transform="translate(0,22)"/><g transform="translate(0,22)"/><g transform="translate(0,22)"/><g transform="translate(0,22)"/><g transform="translate(0,22)"/><g transform="translate(0,22)"/><g transform="translate(0,22)"/><g transform="translate(0,22)"/><g transform="translate(0,22)"/><g transform="translate(0,22)"/><g transform="translate(0,22)"/><g transform="translate(0,22)"/><g transform="translate(0,22)"/><g transform="translate(0,22)"/><g transform="translate(0,22)"/><g transform="translate(0,22)"/><g transform="translate(0,22)"/><g transform="translate(0,22)"/><g transform="translate(0,22)"/><g transform="translate(0,22)"/><g transform="translate(0,22)"/><g transform="translate(0,22)"/><g transform="translate(0,22)"/><g transform="translate(0,22)"/><g transform="translate(0,22)"/><g transform="translate(0,22)"/><g transform="translate(0,22)"/><g transform="translate(0,22)"/><g transform="translate(0,22)"/><g transform="translate(0,22)"/><g transform="translate(0,22)"/><g transform="translate(0,22)"/><g transform="translate(0,22)"/><g transform="translate(0,22)"/><g transform="translate(0,22)"/><g transform="translate(0,22)"/><g transform="translate(0,22)"/><g transform="translate(0,22)"/><g transform="translate(0,22)"/><g transform="translate(0,22)"/><g transform="translate(0,22)"/><g transform="translate(0,22)"/><g transform="translate(0,22)"/><g transform="translate(0,22)"/><g transform="translate(0,22)"/><g transform="translate(0,22)"/><g transform="translate(0,22)"/><g transform="translate(0,22)"/><g transform="translate(0,22)"/><g transform="translate(0,22)"/><g transform="translate(0,22)"/><g transform="translate(0,22)"/><g transform="translate(0,22)"/><g transform="translate(0,22)"/><g transform="translate(0,22)"/><g transform="translate(0,22)"/><g transform="translate(0,22)"/><g transform="translate(0,22)"/><g transform="translate(0,22)"/><g transform="translate(0,22)"/><g transform="translate(0,22)"/><g transform="translate(0,22)"/><g transform="translate(0,22)"/><g transform="translate(0,22)"/><g transform="translate(0,22)"/><g transform="translate(0,22)"/><g transform="translate(0,22)"/><g transform="translate(0,22)"/><g transform="translate(0,22)"/><g transform="translate(0,22)"/><g transform="translate(0,22)"/><g transform="translate(0,22)"/><g transform="translate(0,22)"/><g transform="translate(0,22)"/><g transform="translate(0,22)"/><g transform="translate(0,22)"/><g transform="translate(0,22)"/><g transform="translate(0,22)"/><g transform="translate(0,22)"/><g transform="translate(0,22)"/><g transform="translate(0,22)"><text opacity="1" transform="translate(0,0) rotate(0)" style="text-anchor: middle; display: block; fill: rgb(84, 84, 84);">5%</text></g></g><g class="tick" opacity="1" transform="translate(365.0885009765625, 0)"><line stroke="#000" y2="5" style="stroke: rgb(51, 51, 51); stroke-width: 1; display: block;"/><g transform="translate(0,22)"/><g transform="translate(0,22)"/><g transform="translate(0,22)"/><g transform="translate(0,22)"/><g transform="translate(0,22)"/><g transform="translate(0,22)"/><g transform="translate(0,22)"/><g transform="translate(0,22)"/><g transform="translate(0,22)"/><g transform="translate(0,22)"/><g transform="translate(0,22)"/><g transform="translate(0,22)"/><g transform="translate(0,22)"/><g transform="translate(0,22)"/><g transform="translate(0,22)"/><g transform="translate(0,22)"/><g transform="translate(0,22)"/><g transform="translate(0,22)"/><g transform="translate(0,22)"/><g transform="translate(0,22)"/><g transform="translate(0,22)"/><g transform="translate(0,22)"/><g transform="translate(0,22)"/><g transform="translate(0,22)"/><g transform="translate(0,22)"/><g transform="translate(0,22)"/><g transform="translate(0,22)"/><g transform="translate(0,22)"/><g transform="translate(0,22)"/><g transform="translate(0,22)"/><g transform="translate(0,22)"/><g transform="translate(0,22)"/><g transform="translate(0,22)"/><g transform="translate(0,22)"/><g transform="translate(0,22)"/><g transform="translate(0,22)"/><g transform="translate(0,22)"/><g transform="translate(0,22)"/><g transform="translate(0,22)"/><g transform="translate(0,22)"/><g transform="translate(0,22)"/><g transform="translate(0,22)"/><g transform="translate(0,22)"/><g transform="translate(0,22)"/><g transform="translate(0,22)"/><g transform="translate(0,22)"/><g transform="translate(0,22)"/><g transform="translate(0,22)"/><g transform="translate(0,22)"/><g transform="translate(0,22)"/><g transform="translate(0,22)"/><g transform="translate(0,22)"/><g transform="translate(0,22)"/><g transform="translate(0,22)"/><g transform="translate(0,22)"/><g transform="translate(0,22)"/><g transform="translate(0,22)"/><g transform="translate(0,22)"/><g transform="translate(0,22)"/><g transform="translate(0,22)"/><g transform="translate(0,22)"/><g transform="translate(0,22)"/><g transform="translate(0,22)"/><g transform="translate(0,22)"/><g transform="translate(0,22)"/><g transform="translate(0,22)"/><g transform="translate(0,22)"/><g transform="translate(0,22)"/><g transform="translate(0,22)"/><g transform="translate(0,22)"/><g transform="translate(0,22)"/><g transform="translate(0,22)"/><g transform="translate(0,22)"/><g transform="translate(0,22)"/><g transform="translate(0,22)"/><g transform="translate(0,22)"/><g transform="translate(0,22)"/><g transform="translate(0,22)"/><g transform="translate(0,22)"/><g transform="translate(0,22)"/><g transform="translate(0,22)"/><g transform="translate(0,22)"/><g transform="translate(0,22)"/><g transform="translate(0,22)"/><g transform="translate(0,22)"/><g transform="translate(0,22)"/><g transform="translate(0,22)"/><g transform="translate(0,22)"/><g transform="translate(0,22)"/><g transform="translate(0,22)"/><g transform="translate(0,22)"/><g transform="translate(0,22)"/><g transform="translate(0,22)"/><g transform="translate(0,22)"/><g transform="translate(0,22)"/><g transform="translate(0,22)"/><g transform="translate(0,22)"/><g transform="translate(0,22)"/><g transform="translate(0,22)"/><g transform="translate(0,22)"/><g transform="translate(0,22)"/><g transform="translate(0,22)"/><g transform="translate(0,22)"/><g transform="translate(0,22)"/><g transform="translate(0,22)"/><g transform="translate(0,22)"/><g transform="translate(0,22)"/><g transform="translate(0,22)"/><g transform="translate(0,22)"/><g transform="translate(0,22)"/><g transform="translate(0,22)"/><g transform="translate(0,22)"/><g transform="translate(0,22)"/><g transform="translate(0,22)"/><g transform="translate(0,22)"/><g transform="translate(0,22)"/><g transform="translate(0,22)"/><g transform="translate(0,22)"/><g transform="translate(0,22)"/><g transform="translate(0,22)"/><g transform="translate(0,22)"/><g transform="translate(0,22)"/><g transform="translate(0,22)"/><g transform="translate(0,22)"/><g transform="translate(0,22)"/><g transform="translate(0,22)"/><g transform="translate(0,22)"/><g transform="translate(0,22)"/><g transform="translate(0,22)"/><g transform="translate(0,22)"/><g transform="translate(0,22)"/><g transform="translate(0,22)"><text opacity="1" transform="translate(0,0) rotate(0)" style="text-anchor: middle; display: block; fill: rgb(84, 84, 84);">10%</text></g></g><g class="tick" opacity="1" transform="translate(435.2016906738281, 0)"><line stroke="#000" y2="5" style="stroke: rgb(51, 51, 51); stroke-width: 1; display: block;"/><g transform="translate(0,22)"/><g transform="translate(0,22)"/><g transform="translate(0,22)"/><g transform="translate(0,22)"/><g transform="translate(0,22)"/><g transform="translate(0,22)"/><g transform="translate(0,22)"/><g transform="translate(0,22)"/><g transform="translate(0,22)"/><g transform="translate(0,22)"/><g transform="translate(0,22)"/><g transform="translate(0,22)"/><g transform="translate(0,22)"/><g transform="translate(0,22)"/><g transform="translate(0,22)"/><g transform="translate(0,22)"/><g transform="translate(0,22)"/><g transform="translate(0,22)"/><g transform="translate(0,22)"/><g transform="translate(0,22)"/><g transform="translate(0,22)"/><g transform="translate(0,22)"/><g transform="translate(0,22)"/><g transform="translate(0,22)"/><g transform="translate(0,22)"/><g transform="translate(0,22)"/><g transform="translate(0,22)"/><g transform="translate(0,22)"/><g transform="translate(0,22)"/><g transform="translate(0,22)"/><g transform="translate(0,22)"/><g transform="translate(0,22)"/><g transform="translate(0,22)"/><g transform="translate(0,22)"/><g transform="translate(0,22)"/><g transform="translate(0,22)"/><g transform="translate(0,22)"/><g transform="translate(0,22)"/><g transform="translate(0,22)"/><g transform="translate(0,22)"/><g transform="translate(0,22)"/><g transform="translate(0,22)"/><g transform="translate(0,22)"/><g transform="translate(0,22)"/><g transform="translate(0,22)"/><g transform="translate(0,22)"/><g transform="translate(0,22)"/><g transform="translate(0,22)"/><g transform="translate(0,22)"/><g transform="translate(0,22)"/><g transform="translate(0,22)"/><g transform="translate(0,22)"/><g transform="translate(0,22)"/><g transform="translate(0,22)"/><g transform="translate(0,22)"/><g transform="translate(0,22)"/><g transform="translate(0,22)"/><g transform="translate(0,22)"/><g transform="translate(0,22)"/><g transform="translate(0,22)"/><g transform="translate(0,22)"/><g transform="translate(0,22)"/><g transform="translate(0,22)"/><g transform="translate(0,22)"/><g transform="translate(0,22)"/><g transform="translate(0,22)"/><g transform="translate(0,22)"/><g transform="translate(0,22)"/><g transform="translate(0,22)"/><g transform="translate(0,22)"/><g transform="translate(0,22)"/><g transform="translate(0,22)"/><g transform="translate(0,22)"/><g transform="translate(0,22)"/><g transform="translate(0,22)"/><g transform="translate(0,22)"/><g transform="translate(0,22)"/><g transform="translate(0,22)"/><g transform="translate(0,22)"/><g transform="translate(0,22)"/><g transform="translate(0,22)"/><g transform="translate(0,22)"/><g transform="translate(0,22)"/><g transform="translate(0,22)"/><g transform="translate(0,22)"/><g transform="translate(0,22)"/><g transform="translate(0,22)"/><g transform="translate(0,22)"/><g transform="translate(0,22)"/><g transform="translate(0,22)"/><g transform="translate(0,22)"/><g transform="translate(0,22)"/><g transform="translate(0,22)"/><g transform="translate(0,22)"/><g transform="translate(0,22)"/><g transform="translate(0,22)"/><g transform="translate(0,22)"/><g transform="translate(0,22)"/><g transform="translate(0,22)"/><g transform="translate(0,22)"/><g transform="translate(0,22)"/><g transform="translate(0,22)"/><g transform="translate(0,22)"/><g transform="translate(0,22)"/><g transform="translate(0,22)"/><g transform="translate(0,22)"/><g transform="translate(0,22)"/><g transform="translate(0,22)"/><g transform="translate(0,22)"/><g transform="translate(0,22)"/><g transform="translate(0,22)"/><g transform="translate(0,22)"/><g transform="translate(0,22)"/><g transform="translate(0,22)"/><g transform="translate(0,22)"/><g transform="translate(0,22)"/><g transform="translate(0,22)"/><g transform="translate(0,22)"/><g transform="translate(0,22)"/><g transform="translate(0,22)"/><g transform="translate(0,22)"/><g transform="translate(0,22)"/><g transform="translate(0,22)"/><g transform="translate(0,22)"/><g transform="translate(0,22)"/><g transform="translate(0,22)"/><g transform="translate(0,22)"/><g transform="translate(0,22)"/><g transform="translate(0,22)"/><g transform="translate(0,22)"><text opacity="1" transform="translate(0,0) rotate(0)" style="text-anchor: middle; display: block; fill: rgb(84, 84, 84);">15%</text></g></g><g class="tick" opacity="1" transform="translate(505.3148498535156, 0)"><line stroke="#000" y2="5" style="stroke: rgb(51, 51, 51); stroke-width: 1; display: block;"/><g transform="translate(0,22)"/><g transform="translate(0,22)"/><g transform="translate(0,22)"/><g transform="translate(0,22)"/><g transform="translate(0,22)"/><g transform="translate(0,22)"/><g transform="translate(0,22)"/><g transform="translate(0,22)"/><g transform="translate(0,22)"/><g transform="translate(0,22)"/><g transform="translate(0,22)"/><g transform="translate(0,22)"/><g transform="translate(0,22)"/><g transform="translate(0,22)"/><g transform="translate(0,22)"/><g transform="translate(0,22)"/><g transform="translate(0,22)"/><g transform="translate(0,22)"/><g transform="translate(0,22)"/><g transform="translate(0,22)"/><g transform="translate(0,22)"/><g transform="translate(0,22)"/><g transform="translate(0,22)"/><g transform="translate(0,22)"/><g transform="translate(0,22)"/><g transform="translate(0,22)"/><g transform="translate(0,22)"/><g transform="translate(0,22)"/><g transform="translate(0,22)"/><g transform="translate(0,22)"/><g transform="translate(0,22)"/><g transform="translate(0,22)"/><g transform="translate(0,22)"/><g transform="translate(0,22)"/><g transform="translate(0,22)"/><g transform="translate(0,22)"/><g transform="translate(0,22)"/><g transform="translate(0,22)"/><g transform="translate(0,22)"/><g transform="translate(0,22)"/><g transform="translate(0,22)"/><g transform="translate(0,22)"/><g transform="translate(0,22)"/><g transform="translate(0,22)"/><g transform="translate(0,22)"/><g transform="translate(0,22)"/><g transform="translate(0,22)"/><g transform="translate(0,22)"/><g transform="translate(0,22)"/><g transform="translate(0,22)"/><g transform="translate(0,22)"/><g transform="translate(0,22)"/><g transform="translate(0,22)"/><g transform="translate(0,22)"/><g transform="translate(0,22)"/><g transform="translate(0,22)"/><g transform="translate(0,22)"/><g transform="translate(0,22)"/><g transform="translate(0,22)"/><g transform="translate(0,22)"/><g transform="translate(0,22)"/><g transform="translate(0,22)"/><g transform="translate(0,22)"/><g transform="translate(0,22)"/><g transform="translate(0,22)"/><g transform="translate(0,22)"/><g transform="translate(0,22)"/><g transform="translate(0,22)"/><g transform="translate(0,22)"/><g transform="translate(0,22)"/><g transform="translate(0,22)"/><g transform="translate(0,22)"/><g transform="translate(0,22)"/><g transform="translate(0,22)"/><g transform="translate(0,22)"/><g transform="translate(0,22)"/><g transform="translate(0,22)"/><g transform="translate(0,22)"/><g transform="translate(0,22)"/><g transform="translate(0,22)"/><g transform="translate(0,22)"/><g transform="translate(0,22)"/><g transform="translate(0,22)"/><g transform="translate(0,22)"/><g transform="translate(0,22)"/><g transform="translate(0,22)"/><g transform="translate(0,22)"/><g transform="translate(0,22)"/><g transform="translate(0,22)"/><g transform="translate(0,22)"/><g transform="translate(0,22)"/><g transform="translate(0,22)"/><g transform="translate(0,22)"/><g transform="translate(0,22)"/><g transform="translate(0,22)"/><g transform="translate(0,22)"/><g transform="translate(0,22)"/><g transform="translate(0,22)"/><g transform="translate(0,22)"/><g transform="translate(0,22)"/><g transform="translate(0,22)"/><g transform="translate(0,22)"/><g transform="translate(0,22)"/><g transform="translate(0,22)"/><g transform="translate(0,22)"/><g transform="translate(0,22)"/><g transform="translate(0,22)"/><g transform="translate(0,22)"/><g transform="translate(0,22)"/><g transform="translate(0,22)"/><g transform="translate(0,22)"/><g transform="translate(0,22)"/><g transform="translate(0,22)"/><g transform="translate(0,22)"/><g transform="translate(0,22)"/><g transform="translate(0,22)"/><g transform="translate(0,22)"/><g transform="translate(0,22)"/><g transform="translate(0,22)"/><g transform="translate(0,22)"/><g transform="translate(0,22)"/><g transform="translate(0,22)"/><g transform="translate(0,22)"/><g transform="translate(0,22)"/><g transform="translate(0,22)"/><g transform="translate(0,22)"/><g transform="translate(0,22)"/><g transform="translate(0,22)"><text opacity="1" transform="translate(0,0) rotate(0)" style="text-anchor: middle; display: block; fill: rgb(84, 84, 84);">20%</text></g></g></g></g></g><g class="axis-y-line" transform="translate(33.16250038146973,0)"><g><g class="axis-group" fill="none" font-size="10" font-family="sans-serif" text-anchor="end"><path class="domain" stroke="#000" d="M0.5,344.59999961853026H0.5V0.5H0.5" style="stroke: rgb(51, 51, 51); stroke-width: 1; display: block;"/><g class="tick" opacity="1" transform="translate(0, 344.6000061035156)"><line stroke="#000" x2="-5" style="stroke: rgb(51, 51, 51); stroke-width: 1; display: block;"/><text dx="-8" dy="5.6000000000000005" style="font-size: 14px; font-family: IbarraRealNova-SemiBold; fill: rgb(84, 84, 84); display: block;">0</text></g><g class="tick" opacity="1" transform="translate(0, 293.4109802246094)"><line stroke="#000" x2="-5" style="stroke: rgb(51, 51, 51); stroke-width: 1; display: block;"/><text dx="-8" dy="5.6000000000000005" style="font-size: 14px; font-family: IbarraRealNova-SemiBold; fill: rgb(84, 84, 84); display: block;">20</text></g><g class="tick" opacity="1" transform="translate(0, 242.22195434570312)"><line stroke="#000" x2="-5" style="stroke: rgb(51, 51, 51); stroke-width: 1; display: block;"/><text dx="-8" dy="5.6000000000000005" style="font-size: 14px; font-family: IbarraRealNova-SemiBold; fill: rgb(84, 84, 84); display: block;">40</text></g><g class="tick" opacity="1" transform="translate(0, 191.03292846679688)"><line stroke="#000" x2="-5" style="stroke: rgb(51, 51, 51); stroke-width: 1; display: block;"/><text dx="-8" dy="5.6000000000000005" style="font-size: 14px; font-family: IbarraRealNova-SemiBold; fill: rgb(84, 84, 84); display: block;">60</text></g><g class="tick" opacity="1" transform="translate(0, 139.84390258789062)"><line stroke="#000" x2="-5" style="stroke: rgb(51, 51, 51); stroke-width: 1; display: block;"/><text dx="-8" dy="5.6000000000000005" style="font-size: 14px; font-family: IbarraRealNova-SemiBold; fill: rgb(84, 84, 84); display: block;">80</text></g><g class="tick" opacity="1" transform="translate(0, 88.65487670898438)"><line stroke="#000" x2="-5" style="stroke: rgb(51, 51, 51); stroke-width: 1; display: block;"/><text dx="-8" dy="5.6000000000000005" style="font-size: 14px; font-family: IbarraRealNova-SemiBold; fill: rgb(84, 84, 84); display: block;">100</text></g><g class="tick" opacity="1" transform="translate(0, 37.46584701538086)"><line stroke="#000" x2="-5" style="stroke: rgb(51, 51, 51); stroke-width: 1; display: block;"/><text dx="-8" dy="5.6000000000000005" style="font-size: 14px; font-family: IbarraRealNova-SemiBold; fill: rgb(84, 84, 84); display: block;">120</text></g></g></g></g><defs class="animation-defs"><clipPath id="animation-overlay-3p4liu1fsddavoi"><rect width="516.8374996185303" y="-2" x="0" height="472"/></clipPath></defs></g><text dy="1em" class="title-text" style="fill: rgb(76, 76, 76); font-size: 36px; font-family: &quot;阿里巴巴普惠体 常规&quot;; font-weight: bold; text-anchor: start; letter-spacing: 0px; display: block;" transform="translate(0,0)"><tspan x="0" y="0"/></text><g class="unit-group" style="display: block;" transform="translate(0,-1.4000000000000001)"><text dy="1em" style="fill: rgb(51, 51, 51); font-size: 14px; font-family: IbarraRealNova-SemiBold; font-weight: normal; text-anchor: start;">Units: G c.f.</text></g><g class="source-group" style="display: none;" transform="translate(0,427.7)"><text dy="1em" style="fill: rgb(135, 135, 135); font-size: 14px; font-family: &quot;阿里巴巴普惠体 常规&quot;; font-weight: normal; text-anchor: start;">数据来源：示例数据</text></g><g class="legend" style="display: block;" transform="translate(0,415.47499961853026)"><g transform="translate(86.52557373046875,0)"><g class="legend-group"><g class="legend-item" transform="translate(0,0)" style="opacity: 1;"><circle cx="6" cy="6" r="6" class="legend-shape" style="fill: rgb(21, 42, 209);"/><text x="18" y="6" dy="0.35em" style="text-anchor: start; font-size: 14px; font-family: IbarraRealNova-SemiBold; fill: rgb(84, 84, 84);">Withdrawal of Lake Mead</text></g><g class="legend-item" transform="translate(196.77499389648438,0)" style="opacity: 1;"><circle cx="6" cy="6" r="6" class="legend-shape" style="fill: rgb(109, 154, 231);"/><text x="18" y="6" dy="0.35em" style="text-anchor: start; font-size: 14px; font-family: IbarraRealNova-SemiBold; fill: rgb(84, 84, 84);">Withdrawal of Lake Powell</text></g></g></g></g></g></svg>