<svg xmlns="http://www.w3.org/2000/svg" xmlns:xlink="http://www.w3.org/1999/xlink" viewBox="0 0 640.87 452.69"><defs><style>.cls-1,.cls-15,.cls-19,.cls-20,.cls-4,.cls-6,.cls-7,.cls-8,.cls-9{fill:none;}.cls-2{clip-path:url(#clip-path);}.cls-3{fill:#fdc897;}.cls-15,.cls-3,.cls-4{stroke:#515151;stroke-width:0.81px;}.cls-12,.cls-19,.cls-3,.cls-4,.cls-5,.cls-6,.cls-8{stroke-linecap:square;}.cls-12,.cls-3,.cls-4,.cls-5{stroke-miterlimit:10;}.cls-16,.cls-21,.cls-5{fill:red;}.cls-16,.cls-19,.cls-20,.cls-5{stroke:red;}.cls-16,.cls-5{stroke-width:0.51px;fill-rule:evenodd;}.cls-12,.cls-6,.cls-7{stroke:#000;}.cls-15,.cls-16,.cls-19,.cls-20,.cls-6,.cls-7,.cls-8,.cls-9{stroke-linejoin:round;}.cls-19,.cls-20,.cls-6,.cls-7,.cls-8,.cls-9{stroke-width:1.32px;}.cls-8,.cls-9{stroke:#b18c69;}.cls-10,.cls-11,.cls-21{font-size:15.18px;}.cls-10,.cls-11,.cls-13,.cls-17,.cls-18,.cls-21{font-family:SimSun;}.cls-11{fill:#b18c69;}.cls-12{fill:#fff;stroke-width:0.4px;}.cls-13{font-size:11.84px;}.cls-14{letter-spacing:0em;}.cls-17{font-size:18.63px;}.cls-18{font-size:18.68px;}</style><clipPath id="clip-path" transform="translate(-33.09 -24.7)"><polygon class="cls-1" points="0 502.51 706.45 502.51 706.45 0 0 0 0 502.51 0 502.51"/></clipPath></defs><g id="图层_2" data-name="图层 2"><g id="图层_1-2" data-name="图层 1"><g class="cls-2"><rect class="cls-3" x="77.8" y="386" width="71.29" height="13.57"/><rect class="cls-3" x="166.96" y="367.27" width="71.29" height="32.29"/><rect class="cls-3" x="256.02" y="303.8" width="71.39" height="95.76"/><rect class="cls-3" x="345.17" y="228.99" width="71.29" height="170.57"/><rect class="cls-3" x="434.33" y="69.85" width="71.29" height="329.71"/><polyline class="cls-4" points="113.44 373.54 202.6 277.88 291.66 70.96 380.82 108.72 469.97 130.39"/><polygon class="cls-5" points="113.44 369.19 114.36 372.13 117.51 372.13 114.97 374.05 115.98 376.99 113.44 375.16 110.81 376.99 111.82 374.05 109.28 372.13 112.43 372.13 113.44 369.19"/><polygon class="cls-5" points="202.6 273.53 203.52 276.46 206.66 276.46 204.13 278.39 205.14 281.32 202.6 279.5 199.96 281.32 200.98 278.39 198.44 276.46 201.59 276.46 202.6 273.53"/><polygon class="cls-5" points="291.66 66.61 292.57 69.55 295.72 69.55 293.18 71.47 294.2 74.41 291.66 72.58 289.02 74.41 290.03 71.47 287.5 69.55 290.64 69.55 291.66 66.61"/><polygon class="cls-5" points="380.82 104.37 381.73 107.31 384.88 107.31 382.34 109.23 383.35 112.16 380.82 110.34 378.18 112.16 379.19 109.23 376.65 107.31 379.8 107.31 380.82 104.37"/><polygon class="cls-5" points="469.97 126.03 470.89 128.97 474.04 128.97 471.5 130.89 472.51 133.83 469.97 132.01 467.33 133.83 468.35 130.89 465.81 128.97 468.96 128.97 469.97 126.03"/><line class="cls-6" x1="68.87" y1="399.56" x2="514.55" y2="399.56"/><line class="cls-7" x1="68.87" y1="399.56" x2="68.87" y2="403"/><line class="cls-7" x1="158.02" y1="399.56" x2="158.02" y2="403"/><line class="cls-7" x1="247.18" y1="399.56" x2="247.18" y2="403"/><line class="cls-7" x1="336.24" y1="399.56" x2="336.24" y2="403"/><line class="cls-7" x1="425.39" y1="399.56" x2="425.39" y2="403"/><line class="cls-7" x1="514.55" y1="399.56" x2="514.55" y2="403"/><line class="cls-7" x1="113.45" y1="399.56" x2="113.45" y2="406.55"/><line class="cls-7" x1="202.6" y1="399.56" x2="202.6" y2="406.55"/><line class="cls-7" x1="291.66" y1="399.56" x2="291.66" y2="406.55"/><line class="cls-7" x1="380.82" y1="399.56" x2="380.82" y2="406.55"/><line class="cls-7" x1="469.97" y1="399.56" x2="469.97" y2="406.55"/><line class="cls-8" x1="68.87" y1="399.56" x2="68.87" y2="41.5"/><line class="cls-9" x1="68.87" y1="363.72" x2="65.41" y2="363.72"/><line class="cls-9" x1="68.87" y1="292.15" x2="65.41" y2="292.15"/><line class="cls-9" x1="68.87" y1="220.58" x2="65.41" y2="220.58"/><line class="cls-9" x1="68.87" y1="148.91" x2="65.41" y2="148.91"/><line class="cls-9" x1="68.87" y1="77.34" x2="65.41" y2="77.34"/><line class="cls-9" x1="68.87" y1="399.56" x2="61.86" y2="399.56"/><line class="cls-9" x1="68.87" y1="327.99" x2="61.86" y2="327.99"/><line class="cls-9" x1="68.87" y1="256.32" x2="61.86" y2="256.32"/><line class="cls-9" x1="68.87" y1="184.75" x2="61.86" y2="184.75"/><line class="cls-9" x1="68.87" y1="113.08" x2="61.86" y2="113.08"/><line class="cls-9" x1="68.87" y1="41.5" x2="61.86" y2="41.5"/><text class="cls-10" transform="translate(98.21 424.45)">1965</text><text class="cls-10" transform="translate(187.37 424.45)">1975</text><text class="cls-10" transform="translate(276.42 424.45)">1985</text><text class="cls-10" transform="translate(365.58 424.45)">1995</text><text class="cls-10" transform="translate(454.74 424.45)">2005</text><text class="cls-11" transform="translate(49.37 405.63)">0</text><text class="cls-11" transform="translate(34.14 334.06)">500</text><text class="cls-11" transform="translate(26.52 262.39)">1000</text><text class="cls-11" transform="translate(26.52 190.81)">1500</text><text class="cls-11" transform="translate(26.52 119.14)">2000</text><text class="cls-11" transform="translate(26.52 47.57)">2500</text><rect class="cls-12" x="535.88" y="0.2" width="104.8" height="28.04"/><rect class="cls-3" x="537.81" y="2.13" width="23.15" height="11.24"/><text class="cls-13" transform="translate(561.26 12.05)"> </text><text class="cls-13" transform="translate(567.25 12.05)"><tspan class="cls-14">GD</tspan><tspan x="11.94" y="0">P</tspan></text><line class="cls-15" x1="537.5" y1="20.75" x2="561.26" y2="20.75"/><polygon class="cls-16" points="549.38 16.5 550.3 19.44 553.34 19.44 550.9 21.16 551.82 24.09 549.38 22.37 546.84 24.09 547.76 21.16 545.32 19.44 548.37 19.44 549.38 16.5"/><text class="cls-13" transform="translate(561.26 25.1)"> </text><text class="cls-13" transform="translate(567.25 25.1)"><tspan class="cls-14">Use of wate</tspan><tspan x="65.66" y="0">r</tspan></text><text class="cls-17" transform="translate(272.98 450.07)">Year</text><text class="cls-18" transform="matrix(0, -1, 1, 0, 16.06, 262.39)">GDP (USD)</text><line class="cls-6" x1="68.87" y1="41.5" x2="514.55" y2="41.5"/><line class="cls-7" x1="68.87" y1="41.5" x2="68.87" y2="44.95"/><line class="cls-7" x1="158.02" y1="41.5" x2="158.02" y2="44.95"/><line class="cls-7" x1="247.18" y1="41.5" x2="247.18" y2="44.95"/><line class="cls-7" x1="336.24" y1="41.5" x2="336.24" y2="44.95"/><line class="cls-7" x1="425.39" y1="41.5" x2="425.39" y2="44.95"/><line class="cls-7" x1="514.55" y1="41.5" x2="514.55" y2="44.95"/><line class="cls-7" x1="113.45" y1="41.5" x2="113.45" y2="48.49"/><line class="cls-7" x1="202.6" y1="41.5" x2="202.6" y2="48.49"/><line class="cls-7" x1="291.66" y1="41.5" x2="291.66" y2="48.49"/><line class="cls-7" x1="380.82" y1="41.5" x2="380.82" y2="48.49"/><line class="cls-7" x1="469.97" y1="41.5" x2="469.97" y2="48.49"/><line class="cls-19" x1="514.55" y1="399.56" x2="514.55" y2="41.5"/><line class="cls-20" x1="514.55" y1="399.56" x2="518" y2="399.56"/><line class="cls-20" x1="514.55" y1="354.82" x2="518" y2="354.82"/><line class="cls-20" x1="514.55" y1="310.07" x2="518" y2="310.07"/><line class="cls-20" x1="514.55" y1="265.33" x2="518" y2="265.33"/><line class="cls-20" x1="514.55" y1="220.58" x2="518" y2="220.58"/><line class="cls-20" x1="514.55" y1="175.74" x2="518" y2="175.74"/><line class="cls-20" x1="514.55" y1="130.99" x2="518" y2="130.99"/><line class="cls-20" x1="514.55" y1="86.25" x2="518" y2="86.25"/><line class="cls-20" x1="514.55" y1="41.5" x2="518" y2="41.5"/><line class="cls-20" x1="514.55" y1="377.19" x2="521.56" y2="377.19"/><line class="cls-20" x1="514.55" y1="332.44" x2="521.56" y2="332.44"/><line class="cls-20" x1="514.55" y1="287.7" x2="521.56" y2="287.7"/><line class="cls-20" x1="514.55" y1="242.96" x2="521.56" y2="242.96"/><line class="cls-20" x1="514.55" y1="198.11" x2="521.56" y2="198.11"/><line class="cls-20" x1="514.55" y1="153.37" x2="521.56" y2="153.37"/><line class="cls-20" x1="514.55" y1="108.62" x2="521.56" y2="108.62"/><line class="cls-20" x1="514.55" y1="63.88" x2="521.56" y2="63.88"/><text class="cls-21" transform="translate(526.43 383.26)">6.20E+09</text><text class="cls-21" transform="translate(526.43 338.52)">6.40E+09</text><text class="cls-21" transform="translate(526.43 293.77)">6.60E+09</text><text class="cls-21" transform="translate(526.43 249.03)">6.80E+09</text><text class="cls-21" transform="translate(526.43 204.19)">7.00E+09</text><text class="cls-21" transform="translate(526.43 159.44)">7.20E+09</text><text class="cls-21" transform="translate(526.43 114.69)">7.40E+09</text><text class="cls-21" transform="translate(526.43 69.95)">7.60E+09</text><text class="cls-18" transform="matrix(0, -1, 1, 0, 608.28, 309.48)"> </text><text class="cls-18" transform="matrix(0, -1, 1, 0, 608.28, 300.16)">Use of water (c.f.)</text></g></g></g></svg>